<?xml version="1.0" encoding="utf-8"?>
<!-- Generator: Adobe Illustrator 16.0.3, SVG Export Plug-In . SVG Version: 6.00 Build 0)  -->
<!DOCTYPE svg PUBLIC "-//W3C//DTD SVG 1.1//EN" "http://www.w3.org/Graphics/SVG/1.1/DTD/svg11.dtd">
<svg version="1.1" id="Layer_1" xmlns="http://www.w3.org/2000/svg" xmlns:xlink="http://www.w3.org/1999/xlink" x="0px" y="0px"
	 width="45px" height="45px" viewBox="0 0 45 45" enable-background="new 0 0 45 45" xml:space="preserve">
<g>
	<path fill="#CA2C40" d="M39.289,25.025c-0.192,0-0.384-0.065-0.537-0.201L22.5,10.729L6.249,24.824
		c-0.339,0.297-0.853,0.264-1.151-0.072l-2.912-3.258c-0.302-0.339-0.273-0.857,0.065-1.161L21.952,2.709
		c0.311-0.279,0.784-0.279,1.095,0l19.702,17.623c0.339,0.303,0.367,0.822,0.064,1.161l-2.911,3.257
		C39.739,24.934,39.515,25.025,39.289,25.025z M3.959,21.011l1.825,2.041L21.962,9.021c0.308-0.268,0.768-0.268,1.077,0
		l16.178,14.031l1.825-2.041L22.5,4.424L3.959,21.011z"/>
	<path fill="#CA2C40" d="M35.29,42.5H9.708c-0.455,0-0.822-0.367-0.822-0.821V20.947c0-0.454,0.367-0.822,0.822-0.822
		c0.454,0,0.822,0.368,0.822,0.822v19.91h23.938v-19.91c0-0.454,0.367-0.822,0.821-0.822c0.453,0,0.821,0.368,0.821,0.822v20.732
		C36.111,42.133,35.743,42.5,35.29,42.5z"/>
	<path fill="#CA2C40" d="M9.708,15.585c-0.455,0-0.822-0.368-0.822-0.821V3.521c0-0.453,0.367-0.822,0.822-0.822h5.282
		c0.453,0,0.822,0.369,0.822,0.822v6.52c0,0.454-0.37,0.821-0.822,0.821c-0.455,0-0.822-0.368-0.822-0.821V4.341H10.53v10.422
		C10.53,15.217,10.164,15.585,9.708,15.585z"/>
</g>
</svg>
