<?xml version="1.0" encoding="utf-8"?>
<!-- Generator: Adobe Illustrator 16.0.0, SVG Export Plug-In . SVG Version: 6.00 Build 0)  -->
<!DOCTYPE svg PUBLIC "-//W3C//DTD SVG 1.1//EN" "http://www.w3.org/Graphics/SVG/1.1/DTD/svg11.dtd">
<svg version="1.1" id="Layer_1" xmlns="http://www.w3.org/2000/svg" xmlns:xlink="http://www.w3.org/1999/xlink" x="0px" y="0px"
	 width="102px" height="105px" viewBox="0 0 102 105" enable-background="new 0 0 102 105" xml:space="preserve">
<g>
	<image overflow="visible" opacity="0.1" width="105" height="105" xlink:href="C7FAFB7A.png"  transform="matrix(1 0 0 1 -0.5 0)">
	</image>
	<g>
		<circle fill="#FFFFFF" cx="50.699" cy="51.667" r="46"/>
	</g>
</g>
<g>
	<g>
		<path fill="#C92439" d="M58.348,44.24v-8.63c0-1.726-1.39-3.131-3.098-3.131h-0.361c-0.684,0-1.238,0.555-3.058,2.473
			c-3.009,3.177-8.609,9.088-14.212,9.088H27.308c-2.148,0-3.895,1.766-3.895,3.937v4.757c0,2.168,1.746,3.935,3.895,3.935h0.58
			l2.605,11.117c0.352,1.496,1.873,2.713,3.393,2.713h3.684c0.845,0,1.675-0.562,2.163-1.461c0.479-0.884,0.499-1.838,0.049-2.554
			l-2.455-3.905c-0.841-1.338-0.887-2.81-0.934-4.365c-0.017-0.506-0.032-1.022-0.075-1.545h1.301
			c5.602,0,11.204,5.912,14.213,9.088c1.818,1.92,2.374,2.474,3.057,2.474h0.362c1.708,0,3.097-1.404,3.097-3.131v-8.629
			c2.422-1.005,4.062-3.429,4.062-6.115C62.407,47.668,60.77,45.245,58.348,44.24z M38.341,67.41
			c0.104,0.164,0.062,0.492-0.104,0.797c-0.2,0.367-0.493,0.564-0.668,0.564h-3.684c-0.736,0-1.563-0.658-1.732-1.383L29.64,56.667
			h4.962c0.05,0.519,0.066,1.049,0.084,1.601c0.052,1.719,0.106,3.498,1.2,5.235L38.341,67.41z M36.962,54.943h-9.654
			c-1.207,0-2.188-0.992-2.188-2.21v-4.757c0-1.22,0.981-2.211,2.188-2.211h9.654V54.943z M56.643,44.595
			c-0.002,0-0.002,0.001-0.002,0.003c-0.048,0.164-0.045,0.331,0.002,0.484v10.544c-0.047,0.151-0.05,0.319-0.002,0.483
			c0,0,0,0.002,0.002,0.002v8.984c0,0.775-0.625,1.406-1.393,1.406h-0.225c-0.34-0.229-1.197-1.135-1.961-1.941
			c-3.009-3.174-8.466-8.934-14.397-9.563v-9.292c5.933-0.628,11.389-6.388,14.397-9.563c0.764-0.805,1.621-1.712,1.961-1.94h0.225
			c0.768,0,1.393,0.631,1.393,1.405V44.595z M58.348,54.545v-8.38c1.428,0.867,2.354,2.454,2.354,4.19
			C60.701,52.09,59.775,53.678,58.348,54.545z"/>
	</g>
</g>
<path fill="#323232" d="M65.661,55.008l6.928,4l-1,1.732l-6.928-4L65.661,55.008z"/>
<path fill="#323232" d="M64.661,43.216l6.928-4l1,1.731l-6.928,4.001L64.661,43.216z"/>
<path fill="#323232" d="M66.666,49.833h8v2h-8V49.833z"/>
</svg>
