<?xml version="1.0" encoding="utf-8"?>
<!-- Generator: Adobe Illustrator 16.0.0, SVG Export Plug-In . SVG Version: 6.00 Build 0)  -->
<!DOCTYPE svg PUBLIC "-//W3C//DTD SVG 1.1//EN" "http://www.w3.org/Graphics/SVG/1.1/DTD/svg11.dtd">
<svg version="1.1" id="Layer_1" xmlns="http://www.w3.org/2000/svg" xmlns:xlink="http://www.w3.org/1999/xlink" x="0px" y="0px"
	 width="102px" height="105px" viewBox="0 0 102 105" enable-background="new 0 0 102 105" xml:space="preserve">
<g>
	<image overflow="visible" opacity="0.1" width="105" height="105" xlink:href="D24FF39F.png"  transform="matrix(1 0 0 1 -0.5 1)">
	</image>
	<g>
		<circle fill="#FFFFFF" cx="50.699" cy="52.667" r="46"/>
	</g>
</g>
<g>
	<g>
		<path fill="#C92439" d="M50.722,36.869c-8.61,0-15.615,7.007-15.615,15.619s7.005,15.618,15.615,15.618
			c8.609,0,15.614-7.006,15.614-15.618S59.331,36.869,50.722,36.869z M50.722,66.152c-7.533,0-13.662-6.129-13.662-13.665
			c0-7.535,6.129-13.666,13.662-13.666c7.533,0,13.661,6.131,13.661,13.666C64.383,60.023,58.255,66.152,50.722,66.152z
			 M71.417,53.966c-0.756-0.677-1.185-1.099-1.243-1.907c-0.049-0.709,0.323-1.105,1.039-1.801c0.865-0.842,2.049-1.994,1.701-4.186
			c-0.014-0.084-0.037-0.166-0.071-0.243c-0.825-1.858-2.286-2.164-3.46-2.41c-0.992-0.21-1.574-0.36-2.029-1.031
			c-0.396-0.59-0.271-1.118,0-2.079c0.328-1.161,0.776-2.751-0.619-4.476c-0.055-0.066-0.115-0.124-0.186-0.175
			c-1.64-1.197-3.061-0.731-4.199-0.359c-0.961,0.316-1.539,0.479-2.273,0.124c-0.639-0.313-0.795-0.833-1.041-1.8
			c-0.295-1.17-0.7-2.772-2.771-3.567c-0.08-0.029-0.164-0.049-0.246-0.059c-2.021-0.218-3.017,0.897-3.817,1.79
			c-0.677,0.755-1.098,1.186-1.907,1.244c-0.669,0.042-1.103-0.322-1.8-1.039c-0.842-0.864-1.999-2.051-4.185-1.702
			c-0.085,0.013-0.167,0.037-0.244,0.071c-1.856,0.826-2.163,2.286-2.409,3.461c-0.209,0.99-0.359,1.575-1.031,2.031
			c-0.587,0.396-1.117,0.272-2.079,0c-1.161-0.327-2.753-0.778-4.474,0.618c-0.066,0.055-0.125,0.115-0.175,0.185
			c-1.195,1.644-0.731,3.063-0.357,4.202c0.315,0.964,0.477,1.545,0.123,2.273c-0.313,0.638-0.832,0.796-1.801,1.04
			c-1.169,0.297-2.771,0.703-3.565,2.774c-0.03,0.079-0.05,0.163-0.059,0.247c-0.214,2.021,0.897,3.017,1.791,3.817
			c0.754,0.677,1.184,1.1,1.242,1.908c0.049,0.709-0.323,1.104-1.038,1.801c-0.865,0.841-2.05,1.993-1.701,4.187
			c0.013,0.084,0.036,0.166,0.071,0.242c0.825,1.857,2.285,2.164,3.459,2.41c0.992,0.209,1.575,0.36,2.031,1.031
			c0.396,0.59,0.271,1.118,0,2.079c-0.329,1.161-0.778,2.751,0.618,4.476c0.055,0.065,0.115,0.125,0.185,0.174
			c1.645,1.197,3.063,0.734,4.199,0.358c0.965-0.315,1.547-0.475,2.273-0.124c0.639,0.313,0.797,0.833,1.042,1.803
			c0.295,1.17,0.7,2.771,2.772,3.564c0.08,0.031,0.163,0.051,0.246,0.061c0.173,0.019,0.337,0.026,0.494,0.026
			c1.695,0,2.591-0.999,3.323-1.817c0.676-0.754,1.099-1.185,1.908-1.242c0.723-0.063,1.104,0.322,1.799,1.037
			c0.843,0.865,1.988,2.043,4.186,1.701c0.084-0.013,0.166-0.037,0.242-0.07c1.857-0.825,2.165-2.286,2.411-3.461
			c0.208-0.99,0.358-1.575,1.03-2.03c0.587-0.394,1.117-0.271,2.076,0c1.162,0.328,2.754,0.776,4.476-0.619
			c0.065-0.055,0.124-0.114,0.175-0.185c1.196-1.644,0.732-3.062,0.359-4.202c-0.315-0.962-0.479-1.543-0.124-2.272
			c0.313-0.639,0.831-0.796,1.801-1.042c1.169-0.295,2.771-0.7,3.563-2.771c0.031-0.08,0.051-0.163,0.06-0.246
			C73.421,55.764,72.311,54.766,71.417,53.966z M69.104,58.91c-1.047,0.265-2.349,0.595-3.076,2.078
			c-0.717,1.479-0.307,2.73,0.022,3.738c0.339,1.037,0.486,1.594-0.01,2.338c-0.845,0.638-1.485,0.498-2.608,0.178
			c-1.041-0.293-2.33-0.661-3.703,0.261c-1.36,0.925-1.633,2.214-1.851,3.25c-0.226,1.069-0.375,1.624-1.176,2.021
			c-1.05,0.142-1.536-0.313-2.351-1.15c-0.754-0.773-1.681-1.74-3.336-1.625c-1.642,0.118-2.521,1.102-3.228,1.889
			c-0.729,0.813-1.123,1.236-2.028,1.162c-0.971-0.413-1.173-1.041-1.459-2.173c-0.265-1.047-0.595-2.351-2.078-3.079
			c-1.479-0.713-2.729-0.308-3.737,0.023c-1.039,0.34-1.596,0.486-2.337-0.008c-0.635-0.845-0.496-1.489-0.178-2.611
			c0.294-1.039,0.659-2.332-0.261-3.704c-0.924-1.36-2.213-1.631-3.249-1.851c-1.069-0.225-1.624-0.373-2.021-1.176
			c-0.127-1.049,0.316-1.537,1.152-2.351c0.773-0.753,1.737-1.688,1.626-3.339c-0.119-1.64-1.1-2.52-1.888-3.227
			c-0.813-0.729-1.22-1.137-1.164-2.029c0.414-0.972,1.043-1.172,2.173-1.458c1.047-0.265,2.35-0.595,3.078-2.079
			c0.715-1.48,0.306-2.73-0.023-3.737c-0.34-1.038-0.488-1.595,0.008-2.34c0.845-0.638,1.488-0.493,2.61-0.178
			c1.038,0.294,2.331,0.661,3.703-0.261c1.36-0.924,1.633-2.213,1.85-3.249c0.226-1.069,0.375-1.625,1.175-2.021
			c1.051-0.13,1.537,0.315,2.352,1.153c0.752,0.772,1.689,1.753,3.338,1.625c1.639-0.12,2.518-1.101,3.225-1.889
			c0.729-0.814,1.135-1.223,2.029-1.162c0.971,0.413,1.172,1.041,1.459,2.173c0.265,1.047,0.594,2.35,2.078,3.077
			c1.479,0.717,2.729,0.306,3.737-0.022c1.035-0.341,1.592-0.489,2.337,0.008c0.635,0.844,0.495,1.488,0.178,2.61
			c-0.295,1.039-0.66,2.333,0.262,3.705c0.922,1.361,2.211,1.632,3.248,1.851c1.068,0.224,1.625,0.373,2.021,1.177
			c0.128,1.047-0.315,1.535-1.151,2.35c-0.773,0.752-1.736,1.689-1.625,3.339c0.119,1.64,1.1,2.518,1.887,3.225
			c0.814,0.729,1.22,1.137,1.162,2.031C70.861,58.424,70.232,58.624,69.104,58.91z"/>
	</g>
</g>
<g>
	<path fill="#464646" d="M48.469,47.977c0,1.492-0.328,2.602-0.984,3.328c-0.656,0.726-1.555,1.09-2.695,1.09
		c-0.703,0-1.334-0.154-1.893-0.463s-0.994-0.791-1.307-1.447c-0.313-0.656-0.469-1.457-0.469-2.402
		c0-1.016,0.121-1.863,0.363-2.543c0.242-0.68,0.635-1.195,1.178-1.547s1.236-0.527,2.08-0.527c0.609,0,1.145,0.094,1.605,0.281
		s0.852,0.475,1.172,0.861c0.32,0.386,0.559,0.857,0.715,1.412C48.39,46.575,48.469,47.227,48.469,47.977z M46.277,47.859
		c0-1.023-0.109-1.768-0.328-2.232c-0.219-0.464-0.605-0.697-1.16-0.697c-0.375,0-0.674,0.111-0.896,0.334
		c-0.222,0.223-0.375,0.551-0.457,0.984s-0.123,0.986-0.123,1.658c0,0.695,0.041,1.262,0.123,1.699s0.232,0.768,0.451,0.99
		c0.219,0.222,0.52,0.334,0.902,0.334c0.578,0,0.971-0.246,1.178-0.738C46.174,49.699,46.277,48.922,46.277,47.859z M56.285,45.012
		L46.523,60.75c-0.25,0.43-0.531,0.645-0.844,0.645c-0.18,0-0.359-0.067-0.539-0.205c-0.18-0.137-0.27-0.313-0.27-0.532
		c0-0.164,0.078-0.363,0.234-0.599l9.82-15.867c0.172-0.289,0.322-0.506,0.451-0.65s0.314-0.217,0.557-0.217
		c0.234,0,0.424,0.068,0.568,0.205c0.145,0.137,0.217,0.318,0.217,0.545C56.719,44.238,56.574,44.551,56.285,45.012z M60.469,56.449
		c0,1.492-0.328,2.602-0.984,3.328c-0.655,0.726-1.555,1.09-2.694,1.09c-0.711,0-1.347-0.156-1.903-0.469
		c-0.559-0.313-0.996-0.793-1.314-1.441c-0.316-0.648-0.475-1.449-0.475-2.402c0-1.522,0.291-2.67,0.873-3.438
		c0.582-0.769,1.506-1.154,2.771-1.154c0.609,0,1.143,0.094,1.6,0.281s0.848,0.469,1.172,0.844s0.564,0.843,0.721,1.399
		C60.393,55.045,60.469,55.699,60.469,56.449z M58.277,56.332c0-1.008-0.109-1.744-0.328-2.209s-0.605-0.697-1.16-0.697
		c-0.391,0-0.695,0.109-0.914,0.328s-0.373,0.541-0.463,0.967s-0.135,0.979-0.135,1.658c0,1.047,0.111,1.813,0.334,2.297
		s0.615,0.727,1.178,0.727c0.57,0,0.961-0.248,1.172-0.743C58.172,58.163,58.277,57.387,58.277,56.332z"/>
</g>
</svg>
