<?xml version="1.0" encoding="utf-8"?>
<!-- Generator: Adobe Illustrator 16.0.0, SVG Export Plug-In . SVG Version: 6.00 Build 0)  -->
<!DOCTYPE svg PUBLIC "-//W3C//DTD SVG 1.1//EN" "http://www.w3.org/Graphics/SVG/1.1/DTD/svg11.dtd">
<svg version="1.1" id="Layer_1" xmlns="http://www.w3.org/2000/svg" xmlns:xlink="http://www.w3.org/1999/xlink" x="0px" y="0px"
	 width="45px" height="45px" viewBox="-16.5 -16.5 45 45" enable-background="new -16.5 -16.5 45 45" xml:space="preserve">
<g>
	<g>
		<g>
			<path fill="#626262" d="M76.5,67.734l-6.715-7.938c-0.746-0.877-2.045-0.97-2.898-0.206l-2.682,2.395
				c-0.406,0.364-0.656,0.867-0.699,1.423c-0.238-0.04-0.494,0.008-0.713,0.163c-2.037,1.43-6.063-0.198-8.961-3.622
				c-2.898-3.427-3.904-7.744-2.249-9.623c0.055-0.063,0.101-0.126,0.137-0.195c0.028,0.003,0.055,0.006,0.083,0.006
				c0.559,0.032,1.076-0.142,1.49-0.511l2.678-2.398c0.416-0.367,0.664-0.88,0.704-1.443c0.038-0.566-0.14-1.11-0.501-1.537
				l-6.714-7.936c-0.743-0.882-2.048-0.975-2.899-0.209L43.879,38.5c-0.21,0.188-0.365,0.424-0.455,0.691
				c-0.025,0.021-0.051,0.043-0.074,0.066c-2.71,2.603-5.263,17.801,3.129,27.716c5.182,6.125,12.943,8.085,18.695,8.085
				c3.197,0,5.773-0.604,6.941-1.437c0.529,0.043,1.072-0.125,1.502-0.51l2.682-2.396c0.412-0.373,0.662-0.884,0.699-1.446
				C77.035,68.704,76.857,68.161,76.5,67.734z M47.967,37.645l6.709,8.049l-2.738,2.416c-0.02-0.002-0.04-0.012-0.051-0.025
				c-0.195-0.23-0.57-0.633-1.057-1.146c-3.521-3.744-5.371-6.105-5.514-7.024L47.967,37.645z M47.97,65.639
				c-6.681-7.896-5.692-19.863-3.946-23.814c0.938,1.637,2.796,3.771,5.385,6.526c0.25,0.263,0.469,0.494,0.645,0.687
				c-2.303,2.732-1.334,7.967,2.288,12.243c3.653,4.32,8.622,6.028,11.565,3.97c0.072-0.051,0.133-0.109,0.186-0.172l6.158,7.271
				C66.707,73.742,54.977,73.917,47.97,65.639z M72.322,71.576c-0.029,0.029-0.084,0.023-0.113-0.005l-6.707-8.053l2.791-2.386
				l6.709,8.05L72.322,71.576z"/>
		</g>
	</g>
</g>
<g>
	<g>
		<path fill="#626262" d="M11.19,41.069c-0.152-0.152-0.358-0.236-0.574-0.236h-33.019c-0.449,0-0.813,0.363-0.813,0.811l0,2.282
			h1.626l0-1.472H9.803L9.802,62.425H7.074v-6.971c0.001-0.057-0.004-0.111-0.016-0.164c0,0,0,0,0-0.002
			c0.002,0-0.001-0.004-0.001-0.006c-0.001-0.004-0.001-0.004-0.001-0.006c-0.001-0.002-0.001-0.004-0.001-0.004v-0.002
			c-0.001,0-0.001-0.002-0.001-0.004c-0.001-0.002-0.001-0.004-0.001-0.006c-0.01-0.039-0.022-0.08-0.038-0.117
			c-0.001-0.002-0.001-0.002-0.002-0.006c-0.001,0-0.001-0.002-0.002-0.004C7.013,55.13,7.01,55.13,7.01,55.13
			c0-0.002-0.002-0.004-0.002-0.004c-0.035-0.082-0.083-0.156-0.142-0.221c-0.074-0.082-0.161-0.146-0.256-0.191
			c-0.098-0.045-0.206-0.072-0.319-0.076H-7.718v8.409l-10.295-8.409h-3.579v-0.576l-1.823,1.489l-1.118-0.913h-2.255
			c-0.114,0.004-0.221,0.031-0.318,0.076c-0.099,0.047-0.189,0.115-0.266,0.203c-0.036,0.041-0.068,0.088-0.096,0.135l-0.002,0.002
			c0.002,0.002,0,0.004-0.003,0.006c0,0,0,0,0,0.002c-0.067,0.121-0.099,0.26-0.098,0.393v0.68l1.151-0.94l2.489,2.033
			c0.3,0.246,0.73,0.246,1.03,0l2.744-2.24l10.907,8.908h-18.322V77.04c0,0.447,0.364,0.811,0.813,0.811H6.262
			c0.448,0,0.813-0.363,0.813-0.811V64.048h3.541c0.448,0,0.813-0.363,0.813-0.811l0.001-21.594
			C11.429,41.429,11.344,41.222,11.19,41.069z M-19.006,51.513h14.018c0.449,0,0.813-0.363,0.813-0.811s-0.363-0.811-0.813-0.811
			h-14.018c-0.449,0-0.813,0.363-0.813,0.811S-19.455,51.513-19.006,51.513z M-19.006,48.081h14.018
			c0.449,0,0.813-0.363,0.813-0.811s-0.363-0.811-0.813-0.811h-14.018c-0.449,0-0.813,0.363-0.813,0.811
			S-19.455,48.081-19.006,48.081z"/>
	</g>
</g>
<g>
	<g>
		<path fill="#C92439" d="M5.825,11.778l-0.236-0.003c-0.471-0.002-0.913,0.388-0.926,0.888c-0.011,0.5,0.386,0.915,0.886,0.927
			l0.275,0.003c0.5,0,0.905-0.406,0.905-0.906C6.73,12.186,6.326,11.778,5.825,11.778z M26.641,3.864
			c0-10.303-9.394-18.685-20.941-18.685c-11.547,0-20.941,8.382-20.941,18.685c0,10.302,9.394,18.685,20.941,18.685
			c2.071,0,4.115-0.27,6.082-0.801c2.381,2.139,5.308,3.914,8.708,5.287c0.109,0.043,0.225,0.065,0.339,0.065
			c0.196,0,0.393-0.064,0.554-0.189c0.254-0.196,0.385-0.513,0.345-0.832l-1.146-9.067C24.493,13.491,26.641,8.842,26.641,3.864z
			 M19.031,15.958c-0.231,0.198-0.348,0.5-0.309,0.803l1.008,7.973c-2.759-1.266-5.138-2.829-7.09-4.658
			c-0.171-0.158-0.393-0.246-0.62-0.246c-0.085,0-0.173,0.014-0.255,0.038c-1.952,0.575-3.993,0.866-6.066,0.866
			c-10.548,0-19.129-7.567-19.129-16.87s8.582-16.87,19.129-16.87c10.547,0,19.128,7.568,19.128,16.87
			C24.828,8.457,22.769,12.753,19.031,15.958z M5.322-5.004H5.26C2.519-4.979-0.252-3.352-0.252-0.289
			c0,0.5,0.406,0.908,0.906,0.908c0.5,0,0.906-0.407,0.906-0.908c0-1.97,1.927-2.885,3.716-2.901
			c1.716-0.044,3.684,0.835,3.719,2.741c0.024,1.353-0.642,1.867-1.655,2.645C6.137,3.121,4.642,4.272,4.642,7.101
			c0,0.501,0.405,0.907,0.906,0.907c0.5,0,0.906-0.406,0.906-0.907c0-1.935,0.878-2.611,1.992-3.467
			c1.07-0.824,2.402-1.848,2.36-4.116C10.752-3.459,8.018-5.004,5.322-5.004z"/>
	</g>
</g>
</svg>
