<?xml version="1.0" encoding="utf-8"?>
<!-- Generator: Adobe Illustrator 16.0.3, SVG Export Plug-In . SVG Version: 6.00 Build 0)  -->
<!DOCTYPE svg PUBLIC "-//W3C//DTD SVG 1.1//EN" "http://www.w3.org/Graphics/SVG/1.1/DTD/svg11.dtd">
<svg version="1.1" id="Layer_1" xmlns="http://www.w3.org/2000/svg" xmlns:xlink="http://www.w3.org/1999/xlink" x="0px" y="0px"
	 width="125px" height="125px" viewBox="0 0 125 125" enable-background="new 0 0 125 125" xml:space="preserve">
<g>
	<path fill="#E2E2E2" d="M65.286,49.98h-0.002c-13.282,0-24.088-10.808-24.088-24.09c0-13.286,10.807-24.096,24.09-24.096
		c13.285,0,24.094,10.81,24.094,24.096C89.38,39.173,78.571,49.98,65.286,49.98z M65.286,6.784
		c-10.531,0-19.102,8.572-19.102,19.106c0,10.531,8.568,19.101,19.1,19.101c10.536,0,19.106-8.569,19.106-19.101
		C84.391,15.355,75.821,6.784,65.286,6.784z"/>
	<path fill="#E2E2E2" d="M99.257,123.205c-1.377,0-2.495-1.117-2.495-2.494V70.422c0-6.697-1.847-10.421-5.496-11.093
		c0.468,5.8,0.861,19.105-3.674,31.41c-6.496,17.635-17.489,19.109-28.192,19.109H38.144c-5.759,0-14.895-4.229-14.895-15.582
		V67.352c0-0.115,0.008-0.232,0.023-0.35c0.632-4.417,4.021-12.773,12.34-12.773h52.837c0.03,0,0.055,0,0.08,0h1.47
		c3.535,0,11.753,1.579,11.753,16.193v50.289C101.752,122.088,100.634,123.205,99.257,123.205z M28.237,67.557v26.709
		c0,8.689,7.152,10.594,9.906,10.594h21.256c10.013,0,18.104-1.168,23.512-15.848c4.311-11.699,3.762-24.754,3.331-29.793h-50.63
		C29.95,59.219,28.441,66.416,28.237,67.557z"/>
	<path fill="#E2E2E2" d="M53.577,109.848c-0.421,0-0.846-0.104-1.238-0.328c-1.195-0.686-1.609-2.209-0.926-3.404l28.978-50.628
		c0.686-1.197,2.208-1.612,3.404-0.926c1.195,0.684,1.608,2.207,0.926,3.405l-28.978,50.628
		C55.282,109.396,54.441,109.848,53.577,109.848z"/>
	<path fill="#E2E2E2" d="M40.32,109.848c-0.421,0-0.847-0.104-1.237-0.328c-1.195-0.686-1.609-2.209-0.926-3.404l12.92-22.576
		c0.686-1.195,2.209-1.611,3.404-0.926c1.196,0.686,1.609,2.209,0.926,3.404l-12.92,22.576
		C42.026,109.396,41.185,109.848,40.32,109.848z"/>
	<path fill="#E2E2E2" d="M29.042,105.883c-0.421,0-0.846-0.107-1.238-0.332c-1.195-0.686-1.609-2.209-0.925-3.404l10.649-18.607
		c0.688-1.195,2.209-1.611,3.404-0.926s1.609,2.209,0.926,3.404l-10.649,18.607C30.747,105.43,29.905,105.883,29.042,105.883z"/>
	<path fill="#E2E2E2" d="M66.527,87.271H25.743c-1.377,0-2.494-1.113-2.494-2.496c0-1.375,1.117-2.494,2.494-2.494h40.784
		c1.378,0,2.495,1.119,2.495,2.494C69.022,86.158,67.905,87.271,66.527,87.271z"/>
	<path fill="#E2E2E2" d="M85.252,123.205c-1.377,0-2.495-1.117-2.495-2.494V90.887c0-1.377,1.118-2.494,2.495-2.494
		s2.494,1.117,2.494,2.494v29.824C87.746,122.088,86.629,123.205,85.252,123.205z"/>
	<path fill="#E2E2E2" d="M41.753,123.205c-1.377,0-2.494-1.117-2.494-2.494v-12.975c0-1.377,1.117-2.496,2.494-2.496
		s2.494,1.119,2.494,2.496v12.975C44.247,122.088,43.13,123.205,41.753,123.205z"/>
	<path fill="#E2E2E2" d="M41.753,87.271c-1.377,0-2.494-1.113-2.494-2.496V71.654c0-1.379,1.117-2.496,2.494-2.496
		s2.494,1.117,2.494,2.496v13.121C44.247,86.158,43.13,87.271,41.753,87.271z"/>
</g>
</svg>
