<?xml version="1.0" encoding="utf-8"?>
<!-- Generator: Adobe Illustrator 16.0.0, SVG Export Plug-In . SVG Version: 6.00 Build 0)  -->
<!DOCTYPE svg PUBLIC "-//W3C//DTD SVG 1.1//EN" "http://www.w3.org/Graphics/SVG/1.1/DTD/svg11.dtd">
<svg version="1.1" id="Layer_1" xmlns="http://www.w3.org/2000/svg" xmlns:xlink="http://www.w3.org/1999/xlink" x="0px" y="0px"
	 width="45px" height="45px" viewBox="0 0 45 45" enable-background="new 0 0 45 45" xml:space="preserve">
<g>
	<path fill="#5B5B5B" d="M7.521,27.312c0.484,0,0.875-0.392,0.875-0.875v-0.649c0-2.074,1.736-3.763,3.869-3.763
		s3.867,1.688,3.867,3.763v0.649c0,0.483,0.392,0.875,0.875,0.875s0.875-0.392,0.875-0.875v-0.649c0-2.112-1.218-3.948-3-4.874
		c0.621-0.641,1.008-1.502,1.008-2.455c0-1.965-1.626-3.564-3.625-3.564c-2,0-3.627,1.6-3.627,3.564
		c0,0.953,0.388,1.814,1.009,2.455c-1.782,0.926-3,2.762-3,4.874v0.649C6.646,26.92,7.038,27.312,7.521,27.312z M10.388,18.458
		c0-1,0.842-1.814,1.877-1.814c1.034,0,1.875,0.814,1.875,1.814c0,1.002-0.842,1.816-1.875,1.816
		C11.229,20.274,10.388,19.46,10.388,18.458z"/>
	<path fill="#5B5B5B" d="M17.685,8.49H4.875c-1.931,0-3.5,1.611-3.5,3.59v22.139c0,1.98,1.569,3.591,3.5,3.591h35
		c1.93,0,3.5-1.61,3.5-3.591V12.08c0-1.979-1.57-3.59-3.5-3.59h-13.16 M19.435,9.365 M24.965,9.365 M26.715,10.24h13.16
		c0.965,0,1.75,0.826,1.75,1.84v22.139c0,1.015-0.785,1.842-1.75,1.842h-35c-0.965,0-1.75-0.827-1.75-1.842V12.08
		c0-1.015,0.785-1.84,1.75-1.84h12.81"/>
	<path fill="#5B5B5B" d="M37.798,24.15H21.771c-0.483,0-0.875,0.391-0.875,0.875c0,0.483,0.392,0.875,0.875,0.875h16.027
		c0.483,0,0.875-0.392,0.875-0.875C38.673,24.541,38.281,24.15,37.798,24.15z"/>
	<path fill="#5B5B5B" d="M37.798,29.656H6.951c-0.483,0-0.875,0.392-0.875,0.875s0.392,0.875,0.875,0.875h30.847
		c0.483,0,0.875-0.392,0.875-0.875S38.281,29.656,37.798,29.656z"/>
</g>
<g>
	<path fill="#5B5B5B" d="M21.439,22.25v-7.196h2.358v2.429h2.229v-2.429h2.358v7.196h-2.358v-2.789h-2.229v2.789H21.439z"/>
	<path fill="#5B5B5B" d="M29.83,15.054h2.358v2.329l2.068-2.329h2.769l-2.628,2.709l2.908,4.487h-2.828l-1.729-2.869l-0.56,0.59
		v2.279H29.83V15.054z"/>
</g>
</svg>
