<?xml version="1.0" encoding="utf-8"?>
<!-- Generator: Adobe Illustrator 16.0.0, SVG Export Plug-In . SVG Version: 6.00 Build 0)  -->
<!DOCTYPE svg PUBLIC "-//W3C//DTD SVG 1.1//EN" "http://www.w3.org/Graphics/SVG/1.1/DTD/svg11.dtd">
<svg version="1.1" id="Layer_1" xmlns="http://www.w3.org/2000/svg" xmlns:xlink="http://www.w3.org/1999/xlink" x="0px" y="0px"
	 width="45px" height="45px" viewBox="0 0 45 45" enable-background="new 0 0 45 45" xml:space="preserve">
<path fill="none" stroke="#5B5B5B" stroke-width="2.5" stroke-linecap="round" stroke-linejoin="round" stroke-miterlimit="22.9256" d="
	M33.94,33.168 M32.263,25.537 M33.94,33.168c0.389,1.756,0.773,3.514,1.162,5.271c0.188,0.855,0.176,1.969-0.445,2.59l-0.832,0.83
	l-0.828,0.832c-1.121,1.119-2.295-2.279-2.971-3.713c-2.096-4.455-4.131-8.805-6.414-13.176c-3.149,2.488-5.763,5.311-8.599,8.148
	c0.125,1.236,0.251,2.475,0.376,3.713c0.067,0.65-0.064,1.43-0.527,1.891l-0.653,0.654c-0.933,0.932-1.426,1.018-1.985-0.348
	c-0.679-1.65-1.358-3.305-2.036-4.957c-1.653-0.678-3.306-1.355-4.958-2.035c-1.363-0.561-1.278-1.053-0.346-1.984l0.654-0.654
	C6,29.768,7.171,29.76,7.428,29.701c1.238,0.127,2.476,0.254,3.713,0.379c2.868-2.867,5.284-5.734,8.152-8.604
	c-4.373-2.285-8.729-4.322-13.188-6.422C4.67,14.38,1.269,13.207,2.39,12.085l0.831-0.832l0.831-0.832
	C4.5,9.975,5.786,9.79,6.641,9.978c1.758,0.387,3.515,0.774,5.272,1.161l7.629,1.679c1.463,0.323,5.797,1.277,7.26,1.601l2.58-2.58
	l2.578-2.579l2.58-2.58l2.578-2.579c0.336-0.336,0.711-0.603,1.102-0.796s0.797-0.315,1.191-0.36
	C39.81,2.9,40.196,2.93,40.554,3.037c0.355,0.107,0.676,0.292,0.943,0.559l0,0l0,0l0,0l0,0c0.266,0.266,0.453,0.588,0.557,0.944
	c0.109,0.356,0.139,0.744,0.094,1.14c-0.047,0.397-0.168,0.803-0.361,1.193c-0.195,0.39-0.461,0.765-0.797,1.101l-2.58,2.581
	l-2.58,2.582l-2.582,2.581l-2.58,2.58c0.32,1.458,0.643,2.914,0.963,4.371l0.633,2.87L33.94,33.168z"/>
</svg>
