<?xml version="1.0" encoding="utf-8"?>
<!-- Generator: Adobe Illustrator 16.0.3, SVG Export Plug-In . SVG Version: 6.00 Build 0)  -->
<!DOCTYPE svg PUBLIC "-//W3C//DTD SVG 1.1//EN" "http://www.w3.org/Graphics/SVG/1.1/DTD/svg11.dtd">
<svg version="1.1" id="Layer_1" xmlns="http://www.w3.org/2000/svg" xmlns:xlink="http://www.w3.org/1999/xlink" x="0px" y="0px"
	 width="45px" height="45px" viewBox="0 0 45 45" enable-background="new 0 0 45 45" xml:space="preserve">
<path fill="#CA2C40" d="M32.935,43.493c-1.365,0-2.178-1.876-2.962-3.689c-0.123-0.286-0.238-0.551-0.34-0.769l-0.318-0.675
	c-1.878-3.994-3.661-7.783-5.639-11.623c-2.171,1.805-4.096,3.759-6.121,5.813c-0.45,0.456-0.902,0.914-1.359,1.374l0.338,3.333
	c0.105,1.037-0.188,2.009-0.78,2.601l-0.656,0.658c-0.493,0.491-1.039,0.947-1.697,0.948c-1.063,0-1.536-1.148-1.713-1.58
	l-1.912-4.659l-4.659-1.911c-0.64-0.263-1.395-0.665-1.552-1.44c-0.153-0.766,0.354-1.397,0.922-1.966l0.657-0.658
	c0.539-0.539,1.394-0.668,2.152-0.746c0.079-0.008,0.145-0.015,0.189-0.021c0.077-0.014,0.183-0.022,0.263-0.014l3.329,0.338
	c1.324-1.338,2.576-2.695,3.79-4.013c1.063-1.153,2.155-2.339,3.305-3.52c-3.812-1.96-7.574-3.73-11.54-5.597l-0.672-0.316
	c-0.219-0.103-0.485-0.217-0.772-0.342c-2.009-0.869-3.449-1.571-3.664-2.696c-0.09-0.482,0.069-0.959,0.454-1.341l1.673-1.676
	c0.57-0.568,1.651-0.773,2.471-0.773c0.335,0,0.647,0.032,0.931,0.095l19.839,4.369L36.944,2.942
	c0.398-0.397,0.847-0.721,1.335-0.962c0.482-0.239,0.984-0.391,1.487-0.447c0.514-0.06,1.03-0.018,1.492,0.121
	c0.509,0.154,0.949,0.416,1.313,0.777c0.364,0.361,0.625,0.805,0.779,1.313c0.143,0.472,0.183,0.976,0.121,1.497
	c-0.057,0.506-0.208,1.006-0.447,1.485c-0.241,0.487-0.566,0.938-0.963,1.334L32.001,18.12l4.364,19.819
	c0.308,1.395,0.055,2.667-0.679,3.401l-1.675,1.674C33.617,43.41,33.21,43.493,32.935,43.493z M23.955,24.54
	c0.061,0,0.121,0.007,0.18,0.018c0.252,0.054,0.466,0.218,0.584,0.445c2.192,4.195,4.117,8.288,6.157,12.623l0.318,0.674
	c0.11,0.233,0.23,0.514,0.361,0.819c0.287,0.661,0.918,2.12,1.352,2.561l1.56-1.558c0.299-0.302,0.386-1.03,0.215-1.81L30.217,18.03
	c-0.064-0.288,0.023-0.587,0.23-0.795L40.842,6.839c0.263-0.263,0.477-0.56,0.637-0.88c0.151-0.302,0.245-0.61,0.278-0.917
	c0.034-0.288,0.014-0.557-0.06-0.802c-0.069-0.23-0.187-0.429-0.345-0.588c-0.161-0.16-0.361-0.278-0.594-0.349
	c-0.234-0.071-0.514-0.091-0.797-0.058c-0.301,0.034-0.617,0.13-0.916,0.279c-0.32,0.157-0.617,0.372-0.884,0.638L27.778,14.55
	c-0.209,0.208-0.507,0.295-0.798,0.232l-20.3-4.471c-0.158-0.035-0.351-0.055-0.559-0.055c-0.666,0-1.152,0.18-1.253,0.271
	l-1.557,1.56c0.439,0.432,1.9,1.063,2.561,1.349c0.306,0.133,0.589,0.256,0.822,0.366l0.671,0.315
	c4.34,2.042,8.441,3.972,12.639,6.166c0.244,0.127,0.412,0.362,0.454,0.635c0.042,0.272-0.048,0.547-0.242,0.74
	c-1.433,1.432-2.779,2.895-4.083,4.307c-1.313,1.425-2.67,2.898-4.126,4.354c-0.183,0.183-0.441,0.275-0.697,0.248L7.68,30.199
	c-0.059,0.008-0.13,0.016-0.208,0.022c-0.619,0.064-0.994,0.147-1.109,0.25l-0.653,0.655c-0.177,0.18-0.287,0.306-0.352,0.391
	c0.086,0.052,0.218,0.119,0.417,0.202l4.993,2.048c0.214,0.088,0.382,0.257,0.471,0.47l2.05,4.991c0.081,0.2,0.15,0.333,0.201,0.42
	c0.085-0.065,0.211-0.173,0.39-0.353l0.659-0.656c0.221-0.222,0.333-0.707,0.284-1.209l-0.381-3.737
	c-0.025-0.258,0.066-0.515,0.249-0.697c0.553-0.554,1.098-1.105,1.64-1.657c2.313-2.348,4.496-4.563,7.093-6.615
	C23.574,24.604,23.762,24.54,23.955,24.54z"/>
</svg>
