<?xml version="1.0" encoding="utf-8"?>
<!-- Generator: Adobe Illustrator 16.0.0, SVG Export Plug-In . SVG Version: 6.00 Build 0)  -->
<!DOCTYPE svg PUBLIC "-//W3C//DTD SVG 1.1//EN" "http://www.w3.org/Graphics/SVG/1.1/DTD/svg11.dtd">
<svg version="1.1" id="Layer_1" xmlns="http://www.w3.org/2000/svg" xmlns:xlink="http://www.w3.org/1999/xlink" x="0px" y="0px"
	 width="45px" height="45px" viewBox="-16.5 -16.5 45 45" enable-background="new -16.5 -16.5 45 45" xml:space="preserve">
<g>
	<g>
		<g>
			<path fill="#626262" d="M23.75,18.234l-6.715-7.938c-0.746-0.877-2.045-0.97-2.898-0.206l-2.682,2.395
				c-0.406,0.364-0.656,0.867-0.699,1.423c-0.238-0.04-0.494,0.008-0.713,0.163c-2.037,1.43-6.063-0.198-8.961-3.622
				c-2.898-3.427-3.905-7.744-2.249-9.623c0.055-0.064,0.1-0.126,0.137-0.195c0.029,0.002,0.055,0.006,0.083,0.006
				c0.558,0.032,1.076-0.142,1.49-0.511l2.678-2.397c0.415-0.368,0.664-0.88,0.704-1.443c0.038-0.567-0.14-1.111-0.5-1.537
				L-3.29-13.19c-0.744-0.881-2.048-0.974-2.899-0.209L-8.871-11c-0.21,0.188-0.366,0.423-0.456,0.692
				c-0.026,0.021-0.05,0.042-0.074,0.066c-2.71,2.603-5.263,17.801,3.129,27.716c5.182,6.125,12.943,8.085,18.695,8.085
				c3.197,0,5.773-0.604,6.941-1.437c0.529,0.043,1.072-0.125,1.502-0.51l2.682-2.396c0.412-0.373,0.662-0.884,0.699-1.446
				C24.285,19.204,24.107,18.661,23.75,18.234z M-4.783-11.855l6.708,8.048l-2.738,2.417c-0.021-0.001-0.041-0.012-0.051-0.026
				c-0.195-0.229-0.57-0.632-1.057-1.146c-3.521-3.744-5.372-6.104-5.514-7.024L-4.783-11.855z M-4.78,16.139
				c-6.681-7.896-5.692-19.863-3.947-23.814c0.938,1.637,2.796,3.771,5.385,6.526c0.25,0.263,0.469,0.494,0.644,0.687
				C-5,2.27-4.031,7.504-0.409,11.78c3.653,4.32,8.622,6.028,11.565,3.97c0.072-0.051,0.133-0.109,0.186-0.172L17.5,22.85
				C13.957,24.242,2.226,24.417-4.78,16.139z M19.572,22.076c-0.029,0.029-0.084,0.023-0.113-0.005l-6.707-8.053l2.791-2.386
				l6.709,8.05L19.572,22.076z"/>
		</g>
	</g>
</g>
</svg>
