<?xml version="1.0" encoding="utf-8"?>
<!-- Generator: Adobe Illustrator 16.0.3, SVG Export Plug-In . SVG Version: 6.00 Build 0)  -->
<!DOCTYPE svg PUBLIC "-//W3C//DTD SVG 1.1//EN" "http://www.w3.org/Graphics/SVG/1.1/DTD/svg11.dtd">
<svg version="1.1" id="Layer_1" xmlns="http://www.w3.org/2000/svg" xmlns:xlink="http://www.w3.org/1999/xlink" x="0px" y="0px"
	 width="56px" height="56px" viewBox="0 0 56 56" enable-background="new 0 0 56 56" xml:space="preserve">
<path opacity="0.6" fill="#E2E2E2" d="M40.424,52.993c-1.626,0-2.593-2.233-3.527-4.392c-0.147-0.34-0.283-0.655-0.405-0.915
	l-0.378-0.803c-2.236-4.755-4.359-9.267-6.714-13.837c-2.585,2.148-4.876,4.473-7.287,6.92c-0.536,0.543-1.074,1.088-1.618,1.636
	l0.403,3.968c0.125,1.234-0.223,2.392-0.929,3.096l-0.781,0.783c-0.587,0.586-1.237,1.129-2.02,1.13
	c-1.266,0-1.828-1.367-2.039-1.882l-2.276-5.546l-5.547-2.276c-0.762-0.313-1.661-0.791-1.848-1.715
	c-0.182-0.911,0.421-1.663,1.098-2.339l0.782-0.784c0.642-0.643,1.659-0.796,2.562-0.888c0.094-0.01,0.172-0.018,0.225-0.025
	c0.092-0.017,0.218-0.026,0.313-0.016l3.963,0.402c1.576-1.593,3.067-3.209,4.512-4.777c1.265-1.373,2.566-2.785,3.935-4.191
	c-4.538-2.334-9.017-4.441-13.738-6.663L8.31,19.503c-0.261-0.123-0.578-0.259-0.92-0.408c-2.392-1.034-4.106-1.87-4.361-3.21
	c-0.108-0.574,0.082-1.142,0.54-1.597l1.992-1.994c0.678-0.678,1.966-0.921,2.942-0.921c0.399,0,0.771,0.038,1.108,0.112
	l23.619,5.202l11.967-11.97c0.474-0.474,1.008-0.859,1.589-1.146c0.575-0.285,1.172-0.465,1.771-0.532
	c0.612-0.071,1.226-0.021,1.777,0.144c0.605,0.184,1.13,0.495,1.563,0.926c0.433,0.43,0.744,0.957,0.927,1.562
	c0.17,0.562,0.218,1.162,0.145,1.782c-0.068,0.602-0.249,1.198-0.533,1.769c-0.287,0.58-0.674,1.116-1.147,1.588L39.313,22.786
	l5.195,23.596c0.366,1.66,0.064,3.175-0.809,4.049l-1.993,1.993C41.236,52.895,40.751,52.993,40.424,52.993z M29.733,30.43
	c0.071,0,0.144,0.007,0.214,0.02c0.3,0.064,0.555,0.26,0.695,0.53c2.61,4.994,4.902,9.868,7.331,15.029l0.378,0.802
	c0.131,0.278,0.275,0.611,0.431,0.975c0.341,0.787,1.092,2.524,1.609,3.049l1.856-1.855c0.356-0.359,0.46-1.226,0.256-2.154
	l-5.316-24.148c-0.075-0.342,0.029-0.699,0.275-0.946L49.837,9.356c0.313-0.313,0.568-0.667,0.758-1.048
	c0.181-0.36,0.291-0.727,0.332-1.092c0.04-0.343,0.017-0.663-0.071-0.954c-0.082-0.275-0.222-0.511-0.411-0.7
	c-0.191-0.191-0.43-0.331-0.706-0.415c-0.28-0.085-0.612-0.108-0.949-0.069c-0.359,0.041-0.735,0.155-1.091,0.332
	c-0.381,0.188-0.734,0.444-1.052,0.76L34.284,18.536c-0.248,0.248-0.602,0.351-0.949,0.276L9.167,13.49
	c-0.188-0.042-0.418-0.065-0.665-0.065c-0.793,0-1.372,0.213-1.492,0.322l-1.854,1.856c0.523,0.514,2.262,1.266,3.049,1.606
	c0.365,0.158,0.702,0.304,0.979,0.435l0.799,0.376c5.167,2.431,10.049,4.728,15.047,7.341c0.29,0.151,0.49,0.431,0.54,0.755
	c0.05,0.324-0.058,0.651-0.288,0.881c-1.706,1.704-3.309,3.446-4.86,5.128c-1.563,1.696-3.18,3.45-4.912,5.184
	c-0.218,0.216-0.526,0.328-0.83,0.295l-4.324-0.438c-0.07,0.01-0.155,0.019-0.248,0.028c-0.737,0.075-1.183,0.175-1.321,0.297
	L8.01,38.271c-0.211,0.213-0.341,0.364-0.419,0.466c0.102,0.061,0.259,0.141,0.497,0.239l5.944,2.439
	c0.255,0.104,0.456,0.306,0.561,0.56l2.44,5.941c0.097,0.239,0.179,0.396,0.239,0.5c0.102-0.077,0.252-0.206,0.464-0.42l0.784-0.781
	c0.263-0.264,0.397-0.841,0.338-1.44l-0.453-4.449c-0.031-0.307,0.078-0.612,0.296-0.83c0.659-0.659,1.307-1.317,1.952-1.972
	c2.754-2.795,5.353-5.433,8.445-7.875C29.279,30.506,29.503,30.43,29.733,30.43z"/>
</svg>
