<?xml version="1.0" encoding="utf-8"?>
<!-- Generator: Adobe Illustrator 16.0.0, SVG Export Plug-In . SVG Version: 6.00 Build 0)  -->
<!DOCTYPE svg PUBLIC "-//W3C//DTD SVG 1.1//EN" "http://www.w3.org/Graphics/SVG/1.1/DTD/svg11.dtd">
<svg version="1.1" id="Layer_1" xmlns="http://www.w3.org/2000/svg" xmlns:xlink="http://www.w3.org/1999/xlink" x="0px" y="0px"
	 width="102px" height="105px" viewBox="0 0 102 105" enable-background="new 0 0 102 105" xml:space="preserve">
<g>
	<image overflow="visible" opacity="0.1" width="105" height="105" xlink:href="DAE7D514.png"  transform="matrix(1 0 0 1 -0.5 1)">
	</image>
	<g>
		<circle fill="#FFFFFF" cx="50.866" cy="52.664" r="46"/>
	</g>
</g>
<path fill="#C92439" d="M39.282,73.341c-0.109,0-0.221-0.022-0.323-0.071c-0.27-0.125-0.44-0.394-0.44-0.689v-7.758h-5.526
	c-0.423,0-0.765-0.342-0.765-0.762V38.099c0-0.421,0.342-0.762,0.765-0.762h34.639c0.422,0,0.765,0.341,0.765,0.762v25.961
	c0,0.42-0.343,0.762-0.765,0.762H49.799l-10.024,8.342C39.634,73.279,39.459,73.341,39.282,73.341z M33.757,63.298h5.525
	c0.423,0,0.766,0.343,0.766,0.763v6.891l8.982-7.475c0.138-0.115,0.312-0.179,0.49-0.179h17.346V38.86H33.757V63.298z"/>
<path fill="#323232" d="M50.933,55.939H39.911c-0.422,0-0.764-0.342-0.764-0.763s0.342-0.762,0.764-0.762h11.021
	c0.421,0,0.765,0.341,0.765,0.762S51.354,55.939,50.933,55.939z M60.712,50.892H39.911c-0.422,0-0.764-0.342-0.764-0.762
	s0.342-0.762,0.764-0.762h20.801c0.423,0,0.766,0.342,0.766,0.762S61.135,50.892,60.712,50.892z M60.712,45.845H39.911
	c-0.422,0-0.764-0.342-0.764-0.762s0.342-0.762,0.764-0.762h20.801c0.423,0,0.766,0.342,0.766,0.762S61.135,45.845,60.712,45.845z"
	/>
</svg>
