<?xml version="1.0" encoding="utf-8"?>
<!-- Generator: Adobe Illustrator 16.0.0, SVG Export Plug-In . SVG Version: 6.00 Build 0)  -->
<!DOCTYPE svg PUBLIC "-//W3C//DTD SVG 1.1//EN" "http://www.w3.org/Graphics/SVG/1.1/DTD/svg11.dtd">
<svg version="1.1" id="Layer_1" xmlns="http://www.w3.org/2000/svg" xmlns:xlink="http://www.w3.org/1999/xlink" x="0px" y="0px"
	 width="102px" height="105px" viewBox="0 0 102 105" enable-background="new 0 0 102 105" xml:space="preserve">
<g>
	<image overflow="visible" opacity="0.1" width="105" height="105" xlink:href="C294837D.png"  transform="matrix(1 0 0 1 0.5 1)">
	</image>
	<g>
		<circle fill="#FFFFFF" cx="51.699" cy="52.666" r="46"/>
	</g>
</g>
<path fill="#CA2C40" d="M69.044,67.412l-6.509-6.505c1.053-1.259,1.914-2.681,2.55-4.216c0.804-1.939,1.255-4.058,1.255-6.277
	c0-2.188-0.438-4.275-1.22-6.199l-0.035-0.084c-0.815-1.969-2.007-3.748-3.485-5.248l-0.07-0.082
	c-1.51-1.502-3.317-2.725-5.332-3.557l0,0h-0.008c-1.942-0.809-4.063-1.253-6.271-1.253c-4.53,0-8.643,1.842-11.613,4.81
	c-1.508,1.508-2.729,3.321-3.56,5.341c-0.803,1.936-1.25,4.059-1.25,6.272c0,2.18,0.438,4.277,1.216,6.195l0.034,0.082
	c0.831,2.012,2.052,3.822,3.56,5.328h0.005c1.517,1.514,3.32,2.732,5.324,3.563v-0.004l0.009,0.004
	c1.94,0.802,4.059,1.25,6.275,1.25c2.21,0,4.344-0.448,6.279-1.25c1.535-0.635,2.953-1.502,4.215-2.549l6.511,6.512
	c0.595,0.584,1.543,0.58,2.13-0.006C69.633,68.955,69.633,67.998,69.044,67.412L69.044,67.412z M59.398,59.895L59.398,59.895
	l-0.008,0.004l-0.019,0.021c-1.226,1.221-2.694,2.205-4.329,2.889c-1.574,0.646-3.307,1.008-5.126,1.008
	c-1.826,0-3.553-0.36-5.132-1.008h0.005c-1.645-0.687-3.122-1.679-4.357-2.91v-0.004l0,0c-1.236-1.244-2.236-2.723-2.911-4.354
	l-0.035-0.076c-0.627-1.552-0.973-3.257-0.973-5.05c0-1.827,0.357-3.56,1.008-5.136c0.671-1.625,1.675-3.102,2.911-4.341
	c2.432-2.43,5.782-3.928,9.484-3.928c1.819,0,3.558,0.357,5.126,1.01c1.635,0.678,3.107,1.678,4.348,2.918l0.077,0.065
	c1.202,1.218,2.171,2.669,2.839,4.282l0.035,0.073c0.631,1.555,0.983,3.259,0.983,5.056c0,1.82-0.365,3.554-1.019,5.126
	C61.632,57.18,60.637,58.661,59.398,59.895L59.398,59.895z"/>
<path fill="#323232" d="M46.783,40.627L46.783,40.627c-0.644,0.274-1.245,0.602-1.795,0.973c-0.574,0.381-1.104,0.818-1.585,1.3
	l0.003,0.003h-0.003c-0.49,0.488-0.928,1.02-1.308,1.581v0.005c-0.37,0.554-0.701,1.153-0.968,1.789
	c-0.194,0.457,0.023,0.988,0.481,1.18c0.456,0.192,0.982-0.023,1.177-0.479c0.223-0.515,0.491-1.022,0.807-1.487
	c0.325-0.474,0.69-0.915,1.089-1.314l0,0c0.398-0.399,0.847-0.765,1.313-1.085c0.471-0.316,0.97-0.591,1.486-0.806
	c0.458-0.194,0.674-0.726,0.476-1.179C47.768,40.648,47.239,40.434,46.783,40.627L46.783,40.627z M60.641,49.51L60.641,49.51
	c-0.5,0-0.904,0.403-0.904,0.904c0,1.157-0.225,2.304-0.67,3.379l-0.016,0.047c-0.425,1.012-1.063,1.973-1.898,2.807
	c-0.844,0.849-1.816,1.486-2.856,1.916c-1.069,0.447-2.222,0.668-3.377,0.668c-0.499,0-0.907,0.406-0.907,0.908
	c0,0.495,0.408,0.896,0.907,0.896c1.38,0,2.769-0.27,4.071-0.811c1.256-0.518,2.427-1.289,3.447-2.304
	c0.996-0.998,1.762-2.155,2.285-3.407l0.01-0.031c0.539-1.301,0.809-2.688,0.809-4.068C61.54,49.913,61.137,49.51,60.641,49.51
	L60.641,49.51z"/>
</svg>
