<?xml version="1.0" encoding="utf-8"?>
<!-- Generator: Adobe Illustrator 16.0.3, SVG Export Plug-In . SVG Version: 6.00 Build 0)  -->
<!DOCTYPE svg PUBLIC "-//W3C//DTD SVG 1.1//EN" "http://www.w3.org/Graphics/SVG/1.1/DTD/svg11.dtd">
<svg version="1.1" id="Layer_1" xmlns="http://www.w3.org/2000/svg" xmlns:xlink="http://www.w3.org/1999/xlink" x="0px" y="0px"
	 width="45px" height="45px" viewBox="0 0 45 45" enable-background="new 0 0 45 45" xml:space="preserve">
<g>
	<path fill="#CA2C40" d="M23.535,17.859h-0.002c-4.923,0-8.927-4.004-8.927-8.928C14.606,4.006,18.611,0,23.535,0
		c4.923,0,8.931,4.007,8.931,8.931C32.465,13.854,28.458,17.859,23.535,17.859z M23.535,1.85c-3.904,0-7.081,3.176-7.081,7.081
		c0,3.903,3.176,7.08,7.079,7.08c3.907,0,7.083-3.176,7.083-7.08C30.616,5.026,27.439,1.85,23.535,1.85z"/>
	<path fill="#CA2C40" d="M36.125,45c-0.51,0-0.924-0.415-0.924-0.925V25.434c0-2.479-0.686-3.86-2.038-4.109
		c0.174,2.149,0.319,7.081-1.362,11.643c-2.408,6.534-6.482,7.08-10.451,7.08h-7.878c-2.134,0-5.521-1.567-5.521-5.774v-9.974
		c0-0.043,0.002-0.085,0.008-0.129c0.235-1.637,1.491-4.734,4.574-4.734h19.583c0.013,0,0.02,0,0.031,0h0.544
		c1.311,0,4.357,0.585,4.357,6.001v18.641C37.051,44.585,36.637,45,36.125,45z M9.802,24.373v9.9c0,3.222,2.65,3.927,3.671,3.927
		h7.879c3.711,0,6.711-0.432,8.716-5.873c1.598-4.337,1.395-9.175,1.233-11.043H12.535C10.437,21.283,9.876,23.951,9.802,24.373z"/>
	<path fill="#CA2C40" d="M19.193,40.049c-0.155,0-0.313-0.038-0.459-0.121c-0.442-0.256-0.597-0.82-0.343-1.261l10.742-18.765
		c0.254-0.443,0.818-0.598,1.263-0.343c0.441,0.253,0.595,0.817,0.342,1.262L19.996,39.586
		C19.825,39.882,19.514,40.049,19.193,40.049z"/>
	<path fill="#CA2C40" d="M14.28,40.049c-0.156,0-0.314-0.038-0.458-0.121c-0.443-0.256-0.598-0.82-0.344-1.261l4.787-8.367
		c0.255-0.443,0.82-0.597,1.262-0.343c0.443,0.255,0.597,0.819,0.344,1.259l-4.788,8.368C14.913,39.882,14.601,40.049,14.28,40.049z
		"/>
	<path fill="#CA2C40" d="M10.099,38.579c-0.156,0-0.313-0.04-0.458-0.123c-0.443-0.254-0.596-0.818-0.343-1.262l3.948-6.896
		c0.256-0.443,0.819-0.597,1.262-0.341c0.443,0.251,0.597,0.817,0.343,1.259l-3.948,6.896
		C10.732,38.412,10.419,38.579,10.099,38.579z"/>
	<path fill="#CA2C40" d="M23.994,31.682H8.878c-0.51,0-0.925-0.413-0.925-0.925c0-0.511,0.415-0.926,0.925-0.926h15.116
		c0.51,0,0.926,0.415,0.926,0.926C24.918,31.269,24.504,31.682,23.994,31.682z"/>
	<path fill="#CA2C40" d="M30.936,45c-0.511,0-0.926-0.415-0.926-0.925V33.021c0-0.511,0.415-0.927,0.926-0.927
		s0.924,0.416,0.924,0.927v11.054C31.859,44.585,31.446,45,30.936,45z"/>
	<path fill="#CA2C40" d="M14.812,45c-0.511,0-0.924-0.415-0.924-0.925v-4.81c0-0.51,0.415-0.925,0.924-0.925
		s0.924,0.415,0.924,0.925v4.81C15.736,44.585,15.321,45,14.812,45z"/>
	<path fill="#CA2C40" d="M14.812,31.682c-0.511,0-0.924-0.413-0.924-0.925v-4.863c0-0.511,0.415-0.927,0.924-0.927
		s0.924,0.416,0.924,0.927v4.863C15.736,31.269,15.321,31.682,14.812,31.682z"/>
</g>
</svg>
