<?xml version="1.0" encoding="utf-8"?>
<!-- Generator: Adobe Illustrator 16.0.3, SVG Export Plug-In . SVG Version: 6.00 Build 0)  -->
<!DOCTYPE svg PUBLIC "-//W3C//DTD SVG 1.1//EN" "http://www.w3.org/Graphics/SVG/1.1/DTD/svg11.dtd">
<svg version="1.1" id="Layer_1" xmlns="http://www.w3.org/2000/svg" xmlns:xlink="http://www.w3.org/1999/xlink" x="0px" y="0px"
	 width="56px" height="56px" viewBox="0 0 56 56" enable-background="new 0 0 56 56" xml:space="preserve">
<g opacity="0.6">
	<path fill="#E2E2E2" d="M29.182,22.689H29.18c-5.633,0-10.216-4.584-10.216-10.218c0-5.636,4.584-10.221,10.218-10.221
		c5.635,0,10.221,4.585,10.221,10.221C39.402,18.105,34.816,22.689,29.182,22.689z M29.182,4.367c-4.467,0-8.103,3.636-8.103,8.104
		c0,4.467,3.635,8.102,8.101,8.102c4.471,0,8.105-3.635,8.105-8.102C37.285,8.002,33.65,4.367,29.182,4.367z"/>
	<path fill="#E2E2E2" d="M43.592,53.75c-0.584,0-1.059-0.475-1.059-1.059V31.36c0-2.841-0.783-4.42-2.332-4.705
		c0.199,2.46,0.365,8.104-1.559,13.323c-2.756,7.48-7.418,8.105-11.958,8.105h-9.016c-2.443,0-6.318-1.793-6.318-6.609V30.059
		c0-0.049,0.003-0.098,0.01-0.148c0.268-1.874,1.706-5.418,5.234-5.418h22.412c0.014,0,0.023,0,0.035,0h0.623
		c1.5,0,4.986,0.67,4.986,6.869v21.331C44.65,53.275,44.176,53.75,43.592,53.75z M13.466,30.145v11.33
		c0,3.686,3.033,4.494,4.202,4.494h9.016c4.248,0,7.679-0.496,9.974-6.723c1.828-4.963,1.596-10.5,1.412-12.638H16.594
		C14.193,26.608,13.552,29.661,13.466,30.145z"/>
	<path fill="#E2E2E2" d="M24.214,48.084c-0.178,0-0.358-0.044-0.525-0.139c-0.507-0.291-0.683-0.938-0.393-1.443l12.292-21.476
		c0.291-0.508,0.938-0.684,1.445-0.393c0.506,0.29,0.682,0.936,0.393,1.444L25.133,47.553
		C24.938,47.893,24.581,48.084,24.214,48.084z"/>
	<path fill="#E2E2E2" d="M18.591,48.084c-0.179,0-0.359-0.044-0.524-0.139c-0.508-0.291-0.683-0.938-0.393-1.443l5.479-9.576
		c0.291-0.508,0.938-0.684,1.444-0.393c0.507,0.29,0.683,0.937,0.393,1.442l-5.48,9.577C19.315,47.893,18.958,48.084,18.591,48.084z
		"/>
	<path fill="#E2E2E2" d="M13.807,46.402c-0.179,0-0.358-0.046-0.525-0.141c-0.507-0.291-0.683-0.938-0.392-1.444l4.517-7.892
		c0.292-0.508,0.938-0.684,1.444-0.393c0.507,0.289,0.683,0.937,0.393,1.442l-4.518,7.894C14.531,46.21,14.173,46.402,13.807,46.402
		z"/>
	<path fill="#E2E2E2" d="M29.707,38.508H12.408c-0.584,0-1.058-0.473-1.058-1.059c0-0.584,0.474-1.059,1.058-1.059h17.299
		c0.584,0,1.059,0.475,1.059,1.059C30.766,38.035,30.291,38.508,29.707,38.508z"/>
	<path fill="#E2E2E2" d="M37.65,53.75c-0.584,0-1.059-0.475-1.059-1.059v-12.65c0-0.584,0.475-1.058,1.059-1.058
		s1.059,0.474,1.059,1.058v12.65C38.709,53.275,38.234,53.75,37.65,53.75z"/>
	<path fill="#E2E2E2" d="M19.199,53.75c-0.584,0-1.058-0.475-1.058-1.059v-5.503c0-0.584,0.474-1.059,1.058-1.059
		s1.059,0.475,1.059,1.059v5.503C20.257,53.275,19.783,53.75,19.199,53.75z"/>
	<path fill="#E2E2E2" d="M19.199,38.508c-0.584,0-1.058-0.473-1.058-1.059v-5.566c0-0.584,0.474-1.059,1.058-1.059
		s1.059,0.475,1.059,1.059v5.566C20.257,38.035,19.783,38.508,19.199,38.508z"/>
</g>
</svg>
