<?xml version="1.0" encoding="utf-8"?>
<!-- Generator: Adobe Illustrator 16.0.0, SVG Export Plug-In . SVG Version: 6.00 Build 0)  -->
<!DOCTYPE svg PUBLIC "-//W3C//DTD SVG 1.1//EN" "http://www.w3.org/Graphics/SVG/1.1/DTD/svg11.dtd">
<svg version="1.1" id="Layer_1" xmlns="http://www.w3.org/2000/svg" xmlns:xlink="http://www.w3.org/1999/xlink" x="0px" y="0px"
	 width="45px" height="45px" viewBox="0 0 45 45" enable-background="new 0 0 45 45" xml:space="preserve">
<g>
	<g>
		<g>
			<path fill="#C92439" d="M39.945,35.316l-6.715-7.938c-0.746-0.877-2.045-0.97-2.896-0.206l-2.684,2.396
				c-0.406,0.363-0.656,0.867-0.699,1.423c-0.236-0.04-0.492,0.008-0.713,0.163c-2.037,1.43-6.062-0.198-8.959-3.622
				c-2.898-3.427-3.905-7.744-2.249-9.623c0.055-0.064,0.1-0.126,0.137-0.195c0.029,0.002,0.055,0.006,0.083,0.006
				c0.558,0.032,1.076-0.142,1.49-0.511l2.678-2.397c0.415-0.368,0.664-0.88,0.704-1.443c0.038-0.567-0.14-1.111-0.5-1.537
				l-6.715-7.939c-0.744-0.881-2.048-0.974-2.899-0.209L7.326,6.083C7.116,6.271,6.96,6.506,6.87,6.775
				C6.844,6.796,6.82,6.817,6.796,6.841c-2.71,2.603-5.263,17.802,3.129,27.716c5.182,6.126,12.942,8.085,18.694,8.085
				c3.197,0,5.773-0.604,6.941-1.437c0.529,0.043,1.072-0.125,1.502-0.511l2.682-2.396c0.412-0.373,0.662-0.884,0.699-1.445
				C40.48,36.287,40.303,35.744,39.945,35.316z M11.414,5.228l6.708,8.048l-2.738,2.417c-0.021-0.001-0.041-0.012-0.051-0.026
				c-0.195-0.229-0.57-0.632-1.057-1.146c-3.521-3.744-5.372-6.104-5.514-7.024L11.414,5.228z M11.417,33.223
				C4.736,25.326,5.725,13.359,7.47,9.408c0.938,1.637,2.796,3.771,5.385,6.526c0.25,0.263,0.469,0.494,0.644,0.687
				c-2.302,2.732-1.333,7.966,2.289,12.242c3.653,4.32,8.621,6.027,11.564,3.97c0.072-0.051,0.133-0.108,0.186-0.172l6.158,7.272
				C30.152,41.325,18.423,41.5,11.417,33.223z M35.768,39.159c-0.029,0.028-0.084,0.022-0.113-0.005l-6.707-8.053l2.791-2.387
				l6.709,8.051L35.768,39.159z"/>
		</g>
	</g>
</g>
</svg>
