<?xml version="1.0" encoding="utf-8"?>
<!-- Generator: Adobe Illustrator 16.0.0, SVG Export Plug-In . SVG Version: 6.00 Build 0)  -->
<!DOCTYPE svg PUBLIC "-//W3C//DTD SVG 1.1//EN" "http://www.w3.org/Graphics/SVG/1.1/DTD/svg11.dtd">
<svg version="1.1" id="Layer_1" xmlns="http://www.w3.org/2000/svg" xmlns:xlink="http://www.w3.org/1999/xlink" x="0px" y="0px"
	 width="45px" height="45px" viewBox="0 0 45 45" enable-background="new 0 0 45 45" xml:space="preserve">
<g>
	<path fill="#5B5B5B" d="M16.099,27.777c-0.985,0-1.471-1.123-1.9-2.115c-0.059-0.137-0.114-0.262-0.163-0.367l-0.19-0.404
		c-0.837-1.777-1.635-3.473-2.498-5.174c-0.888,0.776-1.708,1.608-2.565,2.479l-0.526,0.53l0.147,1.438
		c0.066,0.654-0.129,1.277-0.521,1.67l-0.328,0.328C7.254,26.463,6.88,26.77,6.383,26.77c-0.558,0-0.988-0.359-1.28-1.072
		l-0.877-2.137l-2.139-0.879c-0.25-0.103-0.914-0.375-1.05-1.053c-0.136-0.677,0.369-1.183,0.585-1.398l0.327-0.327
		c0.407-0.407,1.02-0.471,1.349-0.504c0.094-0.021,0.225-0.029,0.319-0.018l1.436,0.146c0.596-0.609,1.157-1.218,1.718-1.828
		c0.401-0.435,0.803-0.871,1.216-1.306c-1.68-0.852-3.355-1.64-5.108-2.465l-0.395-0.186c-0.104-0.048-0.23-0.103-0.367-0.163
		c-0.952-0.411-1.935-0.836-2.097-1.681c-0.075-0.391,0.054-0.784,0.353-1.083l0.832-0.833c0.471-0.469,1.246-0.521,1.557-0.521
		c0.2,0,0.39,0.02,0.563,0.058l9.619,2.118l4.821-4.82c0.233-0.234,0.496-0.424,0.785-0.567c0.289-0.144,0.59-0.233,0.893-0.268
		c0.326-0.039,0.64-0.011,0.931,0.077c0.326,0.099,0.611,0.268,0.845,0.503c0.233,0.233,0.408,0.526,0.503,0.848
		c0.089,0.294,0.116,0.608,0.078,0.931c-0.035,0.301-0.124,0.601-0.267,0.889c-0.145,0.29-0.335,0.555-0.569,0.788l-4.822,4.824
		l2.114,9.609c0.092,0.408,0.227,1.432-0.463,2.121l-0.832,0.83C16.655,27.715,16.324,27.777,16.099,27.777z M11.632,17.423
		c0.062,0,0.125,0.006,0.187,0.02c0.259,0.056,0.482,0.225,0.605,0.459c1.083,2.072,2.033,4.092,3.039,6.227l0.191,0.404
		c0.056,0.119,0.118,0.264,0.186,0.42c0.072,0.168,0.201,0.467,0.33,0.721l0.364-0.363c0.009-0.029,0.037-0.223-0.02-0.473
		l-2.22-10.088c-0.065-0.298,0.025-0.607,0.24-0.823l5.169-5.171c0.097-0.096,0.173-0.202,0.23-0.316
		c0.05-0.101,0.083-0.206,0.093-0.303c0.009-0.079,0.005-0.151-0.013-0.211c-0.013-0.042-0.03-0.074-0.055-0.1
		c-0.025-0.025-0.058-0.043-0.1-0.056c-0.04-0.012-0.084-0.019-0.135-0.019c-0.173,0.016-0.277,0.049-0.38,0.099
		c-0.113,0.056-0.219,0.133-0.316,0.229l-5.166,5.165c-0.215,0.217-0.524,0.308-0.824,0.242L2.941,11.263
		c-0.022-0.003-0.082-0.015-0.179-0.015c-0.189,0-0.334,0.04-0.372,0.059L2.103,11.61c0.254,0.127,0.554,0.256,0.723,0.33
		c0.157,0.068,0.301,0.13,0.42,0.187l0.394,0.186c2.143,1.008,4.167,1.96,6.245,3.046c0.251,0.131,0.426,0.375,0.468,0.656
		c0.043,0.281-0.05,0.565-0.251,0.768C9.392,17.491,8.739,18.2,8.085,18.91c-0.67,0.727-1.339,1.453-2.066,2.18
		c-0.19,0.189-0.458,0.279-0.721,0.256l-1.755-0.178c-0.019,0.002-0.039,0.005-0.061,0.006c-0.056,0.006-0.179,0.019-0.271,0.037
		l2.039,0.836c0.221,0.092,0.396,0.268,0.486,0.488l0.85,2.07l0.033-0.033c-0.006-0.002,0.021-0.1,0.007-0.227l-0.188-1.858
		c-0.028-0.268,0.067-0.532,0.257-0.723l0.816-0.824c1.108-1.125,2.255-2.288,3.568-3.327
		C11.238,17.489,11.433,17.423,11.632,17.423z"/>
	<path fill="#5B5B5B" d="M25.278,37.791c-0.227,0-0.447-0.033-0.654-0.098c-0.325-0.096-0.61-0.266-0.846-0.504
		c-0.234-0.234-0.405-0.52-0.502-0.844c-0.09-0.299-0.115-0.611-0.077-0.932c0.036-0.307,0.125-0.605,0.268-0.891
		c0.144-0.291,0.335-0.555,0.569-0.787l4.822-4.822l-2.116-9.611c-0.189-0.848-0.016-1.642,0.463-2.119l0.831-0.833
		c0.309-0.308,0.641-0.372,0.864-0.372c0.986,0,1.471,1.125,1.9,2.116c0.06,0.136,0.113,0.262,0.162,0.367l0.164,0.346
		c0.846,1.797,1.652,3.51,2.525,5.23c0.888-0.775,1.708-1.607,2.565-2.478l0.525-0.531l-0.146-1.44
		c-0.066-0.651,0.129-1.275,0.52-1.667l0.328-0.33c0.301-0.3,0.675-0.607,1.172-0.607c0.559,0,0.988,0.361,1.281,1.073l0.876,2.137
		l2.14,0.878c0.249,0.103,0.914,0.376,1.051,1.055c0.135,0.676-0.37,1.183-0.586,1.398l-0.327,0.326
		c-0.406,0.408-1.021,0.471-1.35,0.504c-0.092,0.021-0.223,0.027-0.318,0.018l-1.436-0.145c-0.596,0.609-1.156,1.217-1.716,1.824
		c-0.403,0.438-0.805,0.873-1.22,1.309c1.684,0.854,3.361,1.643,5.12,2.471l0.384,0.18c0.103,0.049,0.229,0.104,0.365,0.162
		c0.952,0.412,1.938,0.838,2.1,1.684c0.073,0.391-0.056,0.783-0.353,1.082l-0.834,0.832c-0.468,0.471-1.244,0.521-1.557,0.521
		c-0.2,0-0.39-0.02-0.563-0.057l-9.619-2.119l-4.819,4.82c-0.233,0.232-0.496,0.422-0.786,0.564
		c-0.289,0.145-0.588,0.234-0.893,0.27C25.462,37.785,25.369,37.791,25.278,37.791z M28.832,18.083l-0.363,0.364
		c-0.011,0.029-0.038,0.223,0.018,0.471l2.222,10.09c0.065,0.297-0.026,0.605-0.242,0.822L25.298,35
		c-0.098,0.098-0.175,0.203-0.232,0.316c-0.048,0.1-0.08,0.205-0.093,0.305c-0.009,0.078-0.004,0.15,0.016,0.211
		c0.011,0.039,0.029,0.072,0.056,0.098c0.024,0.025,0.057,0.043,0.097,0.055c0.042,0.014,0.088,0.02,0.138,0.02L25.354,36
		c0.097-0.012,0.198-0.043,0.303-0.094c0.113-0.057,0.22-0.135,0.315-0.23l5.164-5.166c0.217-0.215,0.529-0.305,0.826-0.24
		l10.096,2.223c0.15,0.033,0.437-0.004,0.521-0.031l0.315-0.314c-0.254-0.129-0.553-0.258-0.723-0.33
		c-0.156-0.068-0.299-0.131-0.418-0.186l-0.384-0.18c-2.146-1.012-4.173-1.965-6.255-3.053c-0.252-0.131-0.427-0.375-0.47-0.658
		c-0.043-0.279,0.051-0.563,0.252-0.766c0.71-0.709,1.364-1.42,2.02-2.131c0.668-0.725,1.337-1.451,2.062-2.176
		c0.191-0.191,0.455-0.282,0.723-0.257l1.755,0.178c0.02-0.002,0.04-0.005,0.061-0.007c0.058-0.006,0.18-0.018,0.271-0.036
		l-2.038-0.836c-0.22-0.092-0.396-0.268-0.486-0.489l-0.851-2.069l-0.034,0.034c0.007,0-0.019,0.097-0.006,0.226l0.189,1.858
		c0.026,0.267-0.066,0.532-0.258,0.723l-0.816,0.824c-1.108,1.124-2.255,2.288-3.567,3.325c-0.209,0.166-0.479,0.229-0.739,0.172
		c-0.261-0.055-0.483-0.223-0.606-0.459c-1.092-2.09-2.051-4.127-3.065-6.285l-0.164-0.347c-0.056-0.119-0.118-0.262-0.186-0.418
		C29.088,18.635,28.96,18.336,28.832,18.083z"/>
	<g>
		<g>
			<path fill="#5B5B5B" d="M22,1.867c-0.552,0.089-1.102,0.207-1.639,0.352c-0.213,0.058-0.34,0.279-0.283,0.493
				c0.049,0.179,0.212,0.297,0.388,0.297c0.035,0,0.071-0.005,0.105-0.014c0.509-0.137,1.032-0.25,1.555-0.333
				c0.219-0.035,0.369-0.241,0.334-0.46C22.425,1.981,22.223,1.832,22,1.867z"/>
			<path fill="#5B5B5B" d="M20.466,3.256c-0.292,0-0.551-0.198-0.626-0.48c-0.094-0.346,0.111-0.704,0.457-0.796
				c0.544-0.148,1.105-0.268,1.663-0.358c0.362-0.058,0.688,0.188,0.745,0.539c0.057,0.354-0.185,0.688-0.539,0.745
				c-0.515,0.082-1.028,0.192-1.53,0.328C20.583,3.249,20.524,3.256,20.466,3.256z M22.065,2.11
				c-0.568,0.089-1.111,0.205-1.639,0.348c-0.083,0.022-0.13,0.107-0.108,0.189c0.021,0.08,0.115,0.129,0.186,0.108
				c0.521-0.141,1.052-0.254,1.584-0.34c0.083-0.013,0.14-0.092,0.126-0.176C22.204,2.164,22.141,2.11,22.065,2.11z"/>
		</g>
		<g>
			<path fill="#5B5B5B" d="M26.176,1.746c-0.534-0.055-1.079-0.082-1.623-0.082h-0.048c-0.222,0-0.377,0.18-0.377,0.402
				c0,0.223,0.203,0.402,0.425,0.402c0.516,0,1.036,0.026,1.543,0.077c0.015,0.001,0.027,0.001,0.041,0.001
				c0.203,0,0.379-0.154,0.399-0.361C26.559,1.965,26.397,1.769,26.176,1.746z"/>
			<path fill="#5B5B5B" d="M26.137,2.795l-0.058-0.002c-0.508-0.051-1.02-0.077-1.526-0.077c-0.365,0-0.674-0.298-0.674-0.65
				c0-0.365,0.274-0.65,0.626-0.65c0.601,0,1.156,0.027,1.697,0.083c0.356,0.036,0.616,0.355,0.582,0.711
				C26.749,2.544,26.472,2.795,26.137,2.795z M24.553,1.913c-0.138,0-0.178,0.077-0.178,0.154c0,0.079,0.086,0.153,0.178,0.153
				c0.524,0,1.051,0.027,1.568,0.079h0.016c0.079,0,0.144-0.059,0.153-0.138c0.009-0.084-0.054-0.16-0.138-0.168
				C25.627,1.939,25.09,1.913,24.553,1.913z"/>
		</g>
		<g>
			<path fill="#5B5B5B" d="M38.431,11.44c0.069,0.149,0.214,0.238,0.367,0.238c0.056,0,0.112-0.012,0.165-0.036
				c0.202-0.091,0.291-0.33,0.2-0.531c-0.228-0.507-0.485-1.007-0.766-1.49c-0.111-0.19-0.358-0.255-0.55-0.145
				c-0.192,0.112-0.255,0.358-0.146,0.55C37.97,10.483,38.213,10.959,38.431,11.44z"/>
			<path fill="#5B5B5B" d="M38.798,11.926c-0.255,0-0.487-0.15-0.593-0.383c-0.219-0.483-0.459-0.951-0.717-1.391
				c-0.18-0.312-0.073-0.71,0.233-0.89c0.302-0.175,0.715-0.063,0.89,0.234c0.289,0.497,0.551,1.005,0.778,1.513
				c0.147,0.326,0.001,0.712-0.325,0.86C38.979,11.907,38.891,11.926,38.798,11.926z M38.049,9.67c-0.026,0-0.054,0.007-0.077,0.021
				c-0.072,0.042-0.097,0.138-0.054,0.211c0.266,0.454,0.514,0.938,0.738,1.436c0.035,0.075,0.124,0.111,0.206,0.077
				c0.075-0.034,0.11-0.125,0.075-0.203c-0.222-0.492-0.476-0.985-0.754-1.466C38.155,9.699,38.104,9.67,38.049,9.67z"/>
		</g>
		<g>
			<path fill="#5B5B5B" d="M30.244,2.705c-0.521-0.198-1.058-0.37-1.595-0.512c-0.216-0.055-0.435,0.072-0.492,0.286
				c-0.056,0.215,0.072,0.435,0.286,0.491c0.51,0.134,1.02,0.298,1.516,0.486c0.047,0.018,0.096,0.027,0.144,0.027
				c0.16,0,0.313-0.099,0.375-0.26C30.556,3.017,30.452,2.785,30.244,2.705z"/>
			<path fill="#5B5B5B" d="M30.103,3.731c-0.082,0-0.16-0.016-0.234-0.044c-0.487-0.184-0.988-0.345-1.487-0.477
				c-0.347-0.091-0.554-0.447-0.464-0.794c0.091-0.339,0.449-0.551,0.794-0.463c0.544,0.143,1.091,0.318,1.622,0.521
				c0.335,0.127,0.504,0.503,0.377,0.837C30.614,3.563,30.369,3.731,30.103,3.731z M28.569,2.433c-0.098,0-0.154,0.046-0.173,0.11
				c-0.021,0.082,0.029,0.166,0.11,0.187c0.517,0.137,1.034,0.303,1.54,0.494l0.056,0.011c0.052,0,0.118-0.031,0.143-0.1
				c0.031-0.079-0.01-0.167-0.088-0.198c-0.516-0.195-1.046-0.366-1.57-0.504C28.581,2.433,28.574,2.433,28.569,2.433z"/>
		</g>
		<g>
			<path fill="#5B5B5B" d="M32.517,3.782c-0.193-0.11-0.438-0.045-0.548,0.148c-0.112,0.192-0.044,0.438,0.147,0.548
				c0.456,0.262,0.905,0.553,1.338,0.864c0.071,0.052,0.154,0.076,0.235,0.076c0.126,0,0.247-0.058,0.326-0.167
				c0.13-0.181,0.089-0.432-0.091-0.562C33.469,4.363,32.996,4.057,32.517,3.782z"/>
			<path fill="#5B5B5B" d="M33.689,5.667c-0.137,0-0.269-0.042-0.381-0.123c-0.426-0.308-0.87-0.593-1.316-0.85
				c-0.151-0.087-0.26-0.228-0.305-0.396c-0.044-0.167-0.021-0.343,0.065-0.492c0.169-0.297,0.58-0.413,0.886-0.24
				c0.484,0.278,0.967,0.588,1.431,0.923c0.292,0.209,0.357,0.617,0.148,0.908C34.094,5.566,33.896,5.667,33.689,5.667z
				 M32.315,3.977c-0.056,0-0.105,0.028-0.132,0.076c-0.021,0.037-0.026,0.077-0.017,0.116c0.012,0.04,0.037,0.074,0.074,0.094
				C32.7,4.528,33.158,4.823,33.6,5.141c0.066,0.048,0.167,0.031,0.216-0.036c0.049-0.067,0.032-0.164-0.036-0.214
				c-0.45-0.324-0.918-0.625-1.386-0.894C32.369,3.983,32.344,3.977,32.315,3.977z"/>
		</g>
		<g>
			<path fill="#5B5B5B" d="M35.84,6.316c-0.157-0.155-0.412-0.155-0.568,0.002c-0.155,0.158-0.155,0.412,0.002,0.568
				c0.376,0.373,0.735,0.77,1.07,1.179c0.079,0.098,0.195,0.148,0.312,0.148c0.089,0,0.179-0.03,0.253-0.091
				c0.172-0.14,0.198-0.393,0.058-0.565C36.614,7.128,36.234,6.709,35.84,6.316z"/>
			<path fill="#5B5B5B" d="M36.655,8.462c-0.197,0-0.38-0.088-0.503-0.239c-0.333-0.406-0.687-0.796-1.054-1.16
				c-0.124-0.122-0.19-0.285-0.191-0.459c0-0.173,0.065-0.337,0.188-0.46c0.247-0.247,0.673-0.247,0.918-0.003
				c0.401,0.398,0.785,0.822,1.145,1.261c0.109,0.135,0.16,0.304,0.144,0.477C37.284,8.05,37.2,8.205,37.065,8.315
				C36.949,8.411,36.803,8.462,36.655,8.462z M35.557,6.449c-0.041,0-0.08,0.016-0.109,0.044c-0.029,0.029-0.044,0.068-0.044,0.109
				c0,0.042,0.016,0.08,0.045,0.108c0.379,0.376,0.744,0.78,1.088,1.198c0.052,0.064,0.15,0.075,0.217,0.022
				c0.031-0.025,0.05-0.062,0.056-0.103c0.003-0.041-0.01-0.081-0.035-0.112c-0.347-0.426-0.721-0.837-1.107-1.224
				C35.636,6.464,35.597,6.449,35.557,6.449z"/>
		</g>
		<g>
			<path fill="#5B5B5B" d="M40.714,11.37c-0.198-0.083-0.436,0.025-0.503,0.227l-0.57,1.655l-1.604-0.672
				c-0.196-0.082-0.432,0.026-0.504,0.227c-0.066,0.198,0.033,0.426,0.226,0.506l1.975,0.829c0.048,0.021,0.097,0.03,0.148,0.03
				c0.161,0,0.305-0.104,0.354-0.256l0.702-2.039C41.008,11.678,40.906,11.451,40.714,11.37z"/>
			<path fill="#5B5B5B" d="M39.882,14.419c-0.083,0-0.165-0.016-0.244-0.05l-1.976-0.828c-0.31-0.13-0.472-0.495-0.362-0.814
				c0.117-0.33,0.516-0.51,0.831-0.376l1.362,0.57l0.482-1.405c0.112-0.323,0.512-0.507,0.835-0.374
				c0.312,0.13,0.475,0.496,0.363,0.816l-0.702,2.038C40.387,14.249,40.149,14.419,39.882,14.419z M37.916,12.809
				c-0.085,0-0.133,0.034-0.149,0.081c-0.023,0.072,0.016,0.164,0.088,0.194l2.027,0.839c0.055,0,0.104-0.035,0.12-0.087
				l0.703-2.041c0.026-0.074-0.015-0.165-0.085-0.195c-0.099-0.006-0.157,0.027-0.176,0.078l-0.656,1.906l-1.847-0.775
				C37.932,12.809,37.924,12.809,37.916,12.809z"/>
		</g>
	</g>
	<g>
		<g>
			<path fill="#5B5B5B" d="M24.28,43.258c0.552-0.09,1.103-0.207,1.64-0.354c0.213-0.057,0.339-0.277,0.282-0.492
				c-0.048-0.18-0.211-0.295-0.388-0.295c-0.035,0-0.071,0.004-0.105,0.012c-0.508,0.139-1.031,0.252-1.557,0.334
				c-0.219,0.035-0.366,0.242-0.332,0.463C23.856,43.143,24.058,43.293,24.28,43.258z"/>
			<path fill="#5B5B5B" d="M24.213,43.51L24.213,43.51c-0.317,0-0.586-0.229-0.638-0.547c-0.056-0.354,0.185-0.689,0.539-0.744
				c0.514-0.082,1.027-0.193,1.529-0.328c0.307-0.084,0.706,0.117,0.798,0.457c0.093,0.348-0.113,0.705-0.457,0.797
				c-0.545,0.148-1.106,0.268-1.666,0.357C24.284,43.508,24.249,43.51,24.213,43.51z M25.814,42.363
				c-0.559,0.146-1.091,0.26-1.623,0.346c-0.082,0.012-0.14,0.092-0.125,0.178c0.011,0.072,0.074,0.127,0.146,0.127l0.027-0.002
				c0.543-0.086,1.086-0.201,1.615-0.346c0.081-0.021,0.129-0.105,0.107-0.189C25.944,42.41,25.884,42.363,25.814,42.363z"/>
		</g>
		<g>
			<path fill="#5B5B5B" d="M20.103,43.379c0.535,0.053,1.082,0.08,1.625,0.08h0.048c0.222,0,0.377-0.18,0.377-0.4
				c0-0.223-0.203-0.402-0.425-0.402c-0.516,0-1.035-0.027-1.543-0.078c-0.014,0-0.027-0.002-0.041-0.002
				c-0.204,0-0.379,0.154-0.399,0.361C19.721,43.16,19.883,43.355,20.103,43.379z"/>
			<path fill="#5B5B5B" d="M21.776,43.707h-0.048c-0.554,0-1.109-0.027-1.65-0.082c-0.355-0.035-0.616-0.355-0.58-0.713
				c0.033-0.332,0.311-0.584,0.646-0.584l0.066,0.004c0.5,0.051,1.01,0.076,1.518,0.076c0.365,0,0.673,0.299,0.673,0.65
				C22.401,43.424,22.126,43.707,21.776,43.707z M20.158,42.826c-0.094,0-0.159,0.059-0.167,0.137
				c-0.007,0.084,0.054,0.158,0.138,0.168c0.524,0.053,1.062,0.08,1.599,0.08h0.048c0.089,0,0.129-0.076,0.129-0.152
				c0-0.08-0.086-0.154-0.177-0.154c-0.524,0-1.052-0.025-1.568-0.078C20.16,42.826,20.159,42.826,20.158,42.826z"/>
		</g>
		<g>
			<path fill="#5B5B5B" d="M7.849,33.682c-0.067-0.146-0.213-0.234-0.367-0.234c-0.054,0-0.111,0.01-0.165,0.033
				c-0.202,0.094-0.292,0.33-0.201,0.533c0.229,0.506,0.486,1.008,0.768,1.488c0.112,0.191,0.358,0.258,0.549,0.146
				c0.192-0.111,0.256-0.357,0.145-0.551C8.311,34.641,8.066,34.164,7.849,33.682z"/>
			<path fill="#5B5B5B" d="M8.232,35.951L8.232,35.951c-0.23,0-0.447-0.125-0.563-0.322c-0.286-0.492-0.548-1.002-0.779-1.514
				c-0.146-0.326-0.001-0.711,0.324-0.859c0.345-0.148,0.719,0.012,0.861,0.324c0.212,0.475,0.453,0.941,0.717,1.393
				c0.179,0.309,0.075,0.709-0.233,0.891C8.458,35.92,8.346,35.951,8.232,35.951z M7.482,33.695c-0.021,0-0.044,0.004-0.066,0.014
				c-0.073,0.033-0.108,0.125-0.073,0.201c0.224,0.498,0.478,0.99,0.754,1.467c0.042,0.07,0.138,0.096,0.212,0.057
				c0.071-0.043,0.097-0.137,0.053-0.211c-0.272-0.467-0.521-0.949-0.74-1.438C7.598,33.73,7.543,33.695,7.482,33.695z"/>
		</g>
		<g>
			<path fill="#5B5B5B" d="M16.035,42.418c0.522,0.199,1.059,0.371,1.597,0.514c0.215,0.055,0.434-0.072,0.49-0.287
				c0.056-0.213-0.071-0.434-0.285-0.49c-0.51-0.135-1.021-0.299-1.516-0.486c-0.047-0.02-0.095-0.027-0.143-0.027
				c-0.162,0-0.314,0.098-0.376,0.26C15.724,42.107,15.828,42.34,16.035,42.418z"/>
			<path fill="#5B5B5B" d="M17.734,43.193L17.734,43.193c-0.056,0-0.111-0.01-0.166-0.023c-0.542-0.143-1.088-0.318-1.622-0.52
				c-0.335-0.129-0.503-0.504-0.376-0.838c0.124-0.326,0.526-0.5,0.841-0.375c0.484,0.184,0.987,0.344,1.487,0.477
				c0.346,0.09,0.554,0.445,0.463,0.795C18.287,42.994,18.028,43.193,17.734,43.193z M16.198,41.898
				c-0.095,0-0.143,0.037-0.163,0.09c-0.031,0.08,0.009,0.17,0.089,0.199c0.517,0.195,1.045,0.365,1.571,0.502l0.04,0.006
				c0.07,0,0.13-0.047,0.149-0.113c0.021-0.082-0.028-0.166-0.109-0.188c-0.518-0.137-1.035-0.305-1.541-0.494
				C16.221,41.898,16.209,41.898,16.198,41.898z"/>
		</g>
		<g>
			<path fill="#5B5B5B" d="M13.764,41.344c0.194,0.109,0.438,0.043,0.548-0.15c0.111-0.191,0.044-0.438-0.148-0.549
				c-0.456-0.262-0.906-0.551-1.338-0.863c-0.071-0.051-0.154-0.076-0.235-0.076c-0.125,0-0.248,0.059-0.327,0.168
				c-0.129,0.18-0.089,0.432,0.091,0.561C12.811,40.762,13.285,41.068,13.764,41.344z"/>
			<path fill="#5B5B5B" d="M13.965,41.645L13.965,41.645c-0.113,0-0.225-0.029-0.323-0.086c-0.486-0.277-0.967-0.588-1.431-0.922
				c-0.29-0.211-0.356-0.619-0.146-0.91c0.202-0.281,0.625-0.35,0.907-0.146c0.427,0.307,0.87,0.594,1.316,0.85
				c0.151,0.086,0.259,0.227,0.305,0.396c0.044,0.166,0.022,0.342-0.065,0.492C14.413,41.518,14.197,41.645,13.965,41.645z
				 M12.591,39.953c-0.049,0-0.096,0.025-0.125,0.064c-0.05,0.068-0.035,0.166,0.035,0.215c0.451,0.324,0.917,0.627,1.386,0.896
				c0.069,0.037,0.168,0.014,0.21-0.057c0.021-0.037,0.026-0.08,0.015-0.117c-0.01-0.041-0.036-0.074-0.072-0.094
				c-0.461-0.266-0.919-0.561-1.359-0.879C12.654,39.963,12.623,39.953,12.591,39.953z"/>
		</g>
		<g>
			<path fill="#5B5B5B" d="M10.44,38.807c0.157,0.156,0.411,0.156,0.569-0.002c0.157-0.156,0.155-0.412-0.003-0.566
				c-0.375-0.375-0.735-0.771-1.069-1.182c-0.08-0.096-0.195-0.146-0.312-0.146c-0.089,0-0.179,0.031-0.254,0.092
				c-0.172,0.139-0.197,0.393-0.057,0.563C9.667,37.996,10.045,38.414,10.44,38.807z"/>
			<path fill="#5B5B5B" d="M10.724,39.172L10.724,39.172c-0.173,0-0.335-0.066-0.457-0.188c-0.401-0.4-0.786-0.824-1.144-1.262
				c-0.11-0.135-0.161-0.303-0.144-0.477s0.102-0.328,0.236-0.438c0.267-0.217,0.695-0.174,0.914,0.092
				c0.33,0.404,0.684,0.795,1.052,1.16c0.123,0.123,0.192,0.285,0.192,0.459c0.001,0.174-0.066,0.338-0.188,0.461
				C11.061,39.105,10.898,39.172,10.724,39.172z M9.625,37.158c-0.024,0-0.062,0.006-0.097,0.033
				c-0.032,0.027-0.052,0.064-0.056,0.104c-0.004,0.043,0.008,0.082,0.033,0.113c0.348,0.426,0.721,0.838,1.109,1.223
				c0.028,0.029,0.066,0.045,0.108,0.045l0,0c0.042,0,0.082-0.018,0.111-0.045c0.027-0.029,0.043-0.068,0.043-0.109
				s-0.016-0.08-0.045-0.109c-0.381-0.377-0.747-0.781-1.088-1.197C9.716,37.178,9.672,37.158,9.625,37.158z"/>
		</g>
		<g>
			<path fill="#5B5B5B" d="M5.566,33.752c0.199,0.084,0.435-0.025,0.504-0.225l0.57-1.656l1.603,0.672
				c0.198,0.082,0.433-0.023,0.503-0.227c0.068-0.197-0.032-0.424-0.225-0.504l-1.976-0.83c-0.046-0.02-0.097-0.029-0.147-0.029
				c-0.161,0-0.304,0.104-0.356,0.258l-0.702,2.037C5.272,33.447,5.374,33.674,5.566,33.752z"/>
			<path fill="#5B5B5B" d="M5.708,34.029C5.707,34.029,5.707,34.029,5.708,34.029c-0.083,0-0.162-0.016-0.237-0.047
				c-0.311-0.129-0.474-0.494-0.364-0.814l0.702-2.039c0.112-0.332,0.5-0.512,0.833-0.377l1.976,0.832
				c0.311,0.129,0.475,0.494,0.364,0.814c-0.116,0.328-0.509,0.504-0.833,0.375l-1.36-0.57l-0.483,1.404
				C6.22,33.855,5.974,34.029,5.708,34.029z M6.415,31.211c-0.082,0-0.122,0.031-0.138,0.078L5.575,33.33
				c-0.025,0.072,0.015,0.164,0.085,0.193l0.047,0.01c0.056,0,0.111-0.037,0.128-0.086l0.656-1.906l1.847,0.773
				c0.097,0.008,0.156-0.029,0.175-0.08c0.025-0.072-0.016-0.162-0.087-0.193L6.45,31.213C6.438,31.211,6.426,31.211,6.415,31.211z"
				/>
		</g>
	</g>
</g>
</svg>
