<?xml version="1.0" encoding="utf-8"?>
<!-- Generator: Adobe Illustrator 16.0.3, SVG Export Plug-In . SVG Version: 6.00 Build 0)  -->
<!DOCTYPE svg PUBLIC "-//W3C//DTD SVG 1.1//EN" "http://www.w3.org/Graphics/SVG/1.1/DTD/svg11.dtd">
<svg version="1.1" id="Layer_1" xmlns="http://www.w3.org/2000/svg" xmlns:xlink="http://www.w3.org/1999/xlink" x="0px" y="0px"
	 width="56px" height="56px" viewBox="0 0 56 56" enable-background="new 0 0 56 56" xml:space="preserve">
<g opacity="0.6">
	<path fill="#E2E2E2" d="M31.613,53c-0.537,0-1.006-0.393-1.089-0.939c-0.09-0.603,0.325-1.163,0.927-1.254
		c2.604-0.39,6.202-1.349,8.552-3.706c2.829-2.824,4.804-7.489,4.804-11.346V20.896c0-3.758-1.842-7.932-4.802-10.893
		c-2.958-2.961-7.132-4.8-10.892-4.8h-2.18c-3.758,0-7.931,1.839-10.893,4.8c-2.96,2.961-4.8,7.135-4.8,10.893v14.858
		c0,0.607-0.493,1.102-1.102,1.102s-1.103-0.494-1.103-1.102V20.896c0-4.32,2.087-9.091,5.445-12.452
		C17.842,5.087,22.612,3,26.934,3h2.18c4.323,0,9.094,2.087,12.45,5.446c3.358,3.358,5.446,8.13,5.446,12.451v14.858
		c0,4.465-2.188,9.649-5.448,12.903c-2.193,2.202-5.578,3.7-9.784,4.328C31.723,52.995,31.667,53,31.613,53z"/>
	<path fill="#E2E2E2" d="M34.23,27.302c-1.243,0-2.255-1.01-2.255-2.252c0-1.241,1.012-2.25,2.255-2.25
		c1.24,0,2.251,1.009,2.251,2.25C36.481,26.292,35.471,27.302,34.23,27.302z M21.819,27.302c-1.241,0-2.251-1.01-2.251-2.252
		c0-1.241,1.01-2.25,2.251-2.25s2.251,1.009,2.251,2.25C24.07,26.292,23.061,27.302,21.819,27.302z"/>
	<path fill="#E2E2E2" d="M28.002,40.28c-3.807,0-7.063-2.131-7.922-5.18c-0.164-0.586,0.178-1.194,0.764-1.358
		c0.586-0.166,1.194,0.176,1.359,0.763c0.581,2.069,3.02,3.57,5.799,3.57c2.776,0,5.215-1.501,5.795-3.57
		c0.165-0.586,0.777-0.929,1.359-0.763c0.586,0.164,0.928,0.772,0.764,1.358C35.062,38.149,31.806,40.28,28.002,40.28z
		 M46.38,37.089c-0.57,0-1.052-0.441-1.098-1.019c-0.046-0.606,0.407-1.137,1.017-1.183c3.563-0.271,6.356-3.507,6.356-7.364
		c0-3.86-2.794-7.096-6.356-7.367c-0.607-0.046-1.063-0.576-1.017-1.182c0.048-0.607,0.565-1.063,1.184-1.016
		c4.706,0.358,8.393,4.56,8.393,9.564c0,5.002-3.687,9.203-8.393,9.561C46.438,37.088,46.408,37.089,46.38,37.089z M9.62,37.089
		c-0.029,0-0.057-0.001-0.086-0.004c-4.706-0.358-8.393-4.558-8.393-9.561c0-5.005,3.687-9.206,8.394-9.564
		c0.594-0.046,1.136,0.409,1.183,1.016c0.046,0.606-0.409,1.136-1.017,1.182c-3.563,0.271-6.355,3.507-6.355,7.367
		c0,3.857,2.792,7.092,6.356,7.364c0.607,0.046,1.062,0.576,1.016,1.183C10.673,36.647,10.19,37.089,9.62,37.089z"/>
	<path fill="#E2E2E2" d="M9.824,20.591c-0.514,0-0.973-0.36-1.079-0.883c-0.121-0.596,0.264-1.178,0.859-1.3
		c4.887-0.995,9.062-4.093,11.452-8.499c0.168-0.309,0.472-0.52,0.82-0.567c0.347-0.045,0.697,0.074,0.94,0.325
		c3.21,3.317,7.519,5.143,12.131,5.143c2.914,0,5.785-0.754,8.307-2.183c0.527-0.301,1.2-0.115,1.502,0.414
		c0.3,0.53,0.114,1.202-0.415,1.503c-2.853,1.616-6.101,2.471-9.394,2.471c-4.735,0-9.187-1.702-12.683-4.823
		c-2.779,4.325-7.161,7.346-12.221,8.377C9.971,20.584,9.896,20.591,9.824,20.591z"/>
</g>
</svg>
