<?xml version="1.0" encoding="utf-8"?>
<!-- Generator: Adobe Illustrator 16.0.3, SVG Export Plug-In . SVG Version: 6.00 Build 0)  -->
<!DOCTYPE svg PUBLIC "-//W3C//DTD SVG 1.1//EN" "http://www.w3.org/Graphics/SVG/1.1/DTD/svg11.dtd">
<svg version="1.1" id="Layer_1" xmlns="http://www.w3.org/2000/svg" xmlns:xlink="http://www.w3.org/1999/xlink" x="0px" y="0px"
	 width="125px" height="125px" viewBox="0 0 125 125" enable-background="new 0 0 125 125" xml:space="preserve">
<g>
	<path fill="#E2E2E2" d="M110.729,69.753c-0.549,0-1.099-0.19-1.544-0.578l-46.683-40.49l-46.685,40.49
		c-0.975,0.85-2.448,0.754-3.307-0.209l-8.366-9.359c-0.868-0.972-0.786-2.464,0.187-3.333L60.927,5.647
		c0.894-0.801,2.253-0.801,3.147,0l56.596,50.626c0.972,0.869,1.054,2.362,0.186,3.333l-8.365,9.359
		C112.024,69.487,111.379,69.753,110.729,69.753z M9.238,58.219l5.243,5.865l46.473-40.31c0.885-0.77,2.207-0.77,3.092,0
		l46.474,40.31l5.243-5.865L62.502,10.576L9.238,58.219z"/>
	<path fill="#E2E2E2" d="M99.243,119.953H25.757c-1.305,0-2.36-1.057-2.36-2.361V58.034c0-1.304,1.056-2.361,2.36-2.361
		s2.36,1.057,2.36,2.361v57.197h68.765V58.034c0-1.304,1.058-2.361,2.361-2.361c1.303,0,2.361,1.057,2.361,2.361v59.558
		C101.604,118.896,100.546,119.953,99.243,119.953z"/>
	<path fill="#E2E2E2" d="M25.757,42.635c-1.305,0-2.36-1.057-2.36-2.361V7.975c0-1.304,1.056-2.361,2.36-2.361h15.174
		c1.303,0,2.361,1.057,2.361,2.361v18.728c0,1.305-1.059,2.361-2.361,2.361c-1.304,0-2.361-1.057-2.361-2.361V10.336H28.117v29.938
		C28.117,41.578,27.062,42.635,25.757,42.635z"/>
</g>
</svg>
