<?xml version="1.0" encoding="utf-8"?>
<!-- Generator: Adobe Illustrator 16.0.3, SVG Export Plug-In . SVG Version: 6.00 Build 0)  -->
<!DOCTYPE svg PUBLIC "-//W3C//DTD SVG 1.1//EN" "http://www.w3.org/Graphics/SVG/1.1/DTD/svg11.dtd">
<svg version="1.1" id="Layer_1" xmlns="http://www.w3.org/2000/svg" xmlns:xlink="http://www.w3.org/1999/xlink" x="0px" y="0px"
	 width="125px" height="125px" viewBox="0 0 125 125" enable-background="new 0 0 125 125" xml:space="preserve">
<g>
	<path fill="#E2E2E2" d="M70.355,116.851c-1.167,0-2.188-0.854-2.366-2.042c-0.197-1.309,0.706-2.528,2.015-2.725
		c5.661-0.848,13.481-2.933,18.592-8.057c6.148-6.141,10.44-16.283,10.44-24.669V47.058c0-8.17-4-17.243-10.438-23.682
		c-6.431-6.437-15.504-10.435-23.68-10.435h-4.737c-8.17,0-17.243,3.998-23.681,10.435c-6.437,6.438-10.435,15.513-10.435,23.682
		v32.301c0,1.323-1.074,2.396-2.396,2.396s-2.396-1.073-2.396-2.396V47.058c0-9.393,4.537-19.766,11.84-27.069
		c7.301-7.303,17.674-11.839,27.068-11.839h4.737c9.401,0,19.772,4.536,27.069,11.84c7.302,7.302,11.839,17.675,11.839,27.068
		v32.301c0,9.707-4.759,20.981-11.842,28.056c-4.771,4.785-12.129,8.042-21.272,9.408C70.593,116.841,70.474,116.851,70.355,116.851
		z"/>
	<path fill="#E2E2E2" d="M76.044,60.983c-2.703,0-4.901-2.195-4.901-4.895c0-2.698,2.198-4.894,4.901-4.894
		c2.698,0,4.895,2.195,4.895,4.894C80.938,58.788,78.742,60.983,76.044,60.983z M49.063,60.983c-2.699,0-4.894-2.195-4.894-4.895
		c0-2.698,2.194-4.894,4.894-4.894c2.698,0,4.895,2.195,4.895,4.894C53.957,58.788,51.761,60.983,49.063,60.983z"/>
	<path fill="#E2E2E2" d="M62.503,89.198c-8.276,0-15.356-4.632-17.22-11.261c-0.357-1.274,0.385-2.597,1.658-2.954
		c1.273-0.36,2.597,0.382,2.955,1.658c1.264,4.498,6.565,7.765,12.606,7.765c6.037,0,11.337-3.267,12.601-7.765
		c0.358-1.272,1.689-2.019,2.956-1.658c1.272,0.357,2.015,1.68,1.658,2.954C77.854,84.566,70.774,89.198,62.503,89.198z
		 M102.46,82.26c-1.24,0-2.29-0.958-2.387-2.215c-0.101-1.319,0.887-2.471,2.207-2.57c7.749-0.592,13.82-7.623,13.82-16.009
		c0-8.392-6.071-15.426-13.819-16.016c-1.319-0.101-2.309-1.251-2.208-2.571c0.102-1.319,1.226-2.31,2.572-2.207
		c10.23,0.778,18.246,9.912,18.246,20.794c0,10.875-8.014,20.007-18.246,20.786C102.583,82.257,102.521,82.26,102.46,82.26z
		 M22.541,82.26c-0.063,0-0.123-0.003-0.186-0.008C12.123,81.473,4.108,72.343,4.108,61.466c0-10.882,8.016-20.016,18.248-20.794
		c1.292-0.101,2.47,0.888,2.571,2.207c0.1,1.32-0.89,2.471-2.209,2.571C14.971,46.04,8.9,53.074,8.9,61.466
		c0,8.386,6.07,15.417,13.819,16.009c1.319,0.1,2.308,1.251,2.208,2.57C24.83,81.302,23.781,82.26,22.541,82.26z"/>
	<path fill="#E2E2E2" d="M22.983,46.394c-1.115,0-2.113-0.783-2.345-1.919c-0.264-1.296,0.572-2.562,1.869-2.825
		c10.624-2.163,19.699-8.898,24.898-18.479c0.363-0.671,1.024-1.128,1.781-1.231c0.753-0.1,1.516,0.16,2.046,0.707
		c6.979,7.21,16.346,11.181,26.373,11.181c6.333,0,12.577-1.642,18.059-4.748c1.147-0.653,2.611-0.25,3.265,0.902
		c0.653,1.151,0.248,2.613-0.903,3.266c-6.198,3.514-13.26,5.372-20.42,5.372c-10.294,0-19.974-3.701-27.574-10.484
		c-6.041,9.4-15.568,15.97-26.567,18.21C23.303,46.377,23.143,46.394,22.983,46.394z"/>
</g>
</svg>
