<?xml version="1.0" encoding="utf-8"?>
<!-- Generator: Adobe Illustrator 16.0.0, SVG Export Plug-In . SVG Version: 6.00 Build 0)  -->
<!DOCTYPE svg PUBLIC "-//W3C//DTD SVG 1.1//EN" "http://www.w3.org/Graphics/SVG/1.1/DTD/svg11.dtd">
<svg version="1.1" id="Layer_1" xmlns="http://www.w3.org/2000/svg" xmlns:xlink="http://www.w3.org/1999/xlink" x="0px" y="0px"
	 width="45px" height="45px" viewBox="0 0 45 45" enable-background="new 0 0 45 45" xml:space="preserve">
<g>
	<g>
		<path fill="none" stroke="#5B5B5B" stroke-width="2.5" stroke-linejoin="round" stroke-miterlimit="10" d="M31.655,29.094
			l7.473-3.818c1.445-0.777,3.14-0.465,3.838,0.834c0.697,1.301,0.086,3-1.359,3.775l-15.506,8.313l-0.82,0.205l-14.462,0.393
			c0,0-1.862,0.52-4.1,3.055"/>
		<path fill="none" stroke="#5B5B5B" stroke-width="2.5" stroke-miterlimit="10" d="M1.58,34.246l6.56-6.037
			c3.206-2.164,7.007-0.971,7.007-0.971c1.841,0.484,5.26,0.594,5.26,0.594h5.675c1.69,0,3.075,1.209,3.075,2.686
			c0,1.475-1.385,2.684-3.075,2.684H18.23"/>
	</g>
	<polyline fill="none" stroke="#5B5B5B" stroke-width="2.5" stroke-linejoin="round" stroke-miterlimit="10" points="35.192,23.809 
		35.192,19.841 22.816,8.759 22.808,8.759 22.816,8.759 22.808,8.759 10.433,19.841 10.433,24.242 	"/>
	<polyline fill="none" stroke="#5B5B5B" stroke-width="2.5" stroke-miterlimit="10" points="39.572,18.457 22.807,3.849 
		14.929,10.701 14.929,6.319 11.288,6.319 11.288,13.873 6.053,18.457 	"/>
</g>
</svg>
