<?xml version="1.0" encoding="utf-8"?>
<!-- Generator: Adobe Illustrator 16.0.0, SVG Export Plug-In . SVG Version: 6.00 Build 0)  -->
<!DOCTYPE svg PUBLIC "-//W3C//DTD SVG 1.1//EN" "http://www.w3.org/Graphics/SVG/1.1/DTD/svg11.dtd">
<svg version="1.1" id="Layer_1" xmlns="http://www.w3.org/2000/svg" xmlns:xlink="http://www.w3.org/1999/xlink" x="0px" y="0px"
	 width="45px" height="45px" viewBox="0 0 45 45" enable-background="new 0 0 45 45" xml:space="preserve">
<path fill="#5B5B5B" d="M25.141,37.251h-2.415v-7.245c0-0.91,0-3.681-7.431-4.843c-0.588-0.092-1.021-0.6-1.021-1.193v-1.665
	c0-0.506,0.315-0.957,0.789-1.133c2.465-0.91,2.833-3.177,2.833-4.447v-2.415c0-2.797-2.031-4.829-4.829-4.829V7.067
	c4.13,0,7.244,3.114,7.244,7.244v2.415c0,2.833-1.237,5.063-3.431,6.267c5.482,1.099,8.261,3.454,8.261,7.014V37.251z"/>
<path fill="#5B5B5B" d="M43.25,37.251h-2.415v-7.245c0-0.91,0-3.681-7.43-4.843c-0.588-0.092-1.021-0.6-1.021-1.193v-1.665
	c0-0.506,0.314-0.957,0.789-1.133c2.465-0.91,2.832-3.177,2.832-4.447v-2.415c0-2.797-2.031-4.829-4.829-4.829
	s-4.829,2.032-4.829,4.829v2.415c0,1.27,0.368,3.537,2.833,4.447c0.474,0.176,0.789,0.627,0.789,1.133v1.665
	c0,0.585-0.419,1.085-0.994,1.188c-2.847,0.512-4.952,1.262-6.086,2.17l-1.509-1.885c1.291-1.034,3.311-1.851,6.015-2.435
	c-2.214-1.199-3.461-3.437-3.461-6.284v-2.415c0-4.13,3.112-7.244,7.243-7.244c4.13,0,7.244,3.114,7.244,7.244v2.415
	c0,2.833-1.237,5.063-3.432,6.267c5.482,1.099,8.261,3.454,8.261,7.014V37.251z"/>
<path fill="#5B5B5B" d="M4.237,37.251H1.823v-7.245c0-3.56,2.777-5.915,8.26-7.014c-2.194-1.204-3.431-3.434-3.431-6.267v-2.415
	c0-4.13,3.114-7.244,7.244-7.244v2.415c-2.797,0-4.829,2.032-4.829,4.829v2.415c0,1.27,0.368,3.537,2.833,4.447
	c0.474,0.176,0.789,0.627,0.789,1.133v1.665c0,0.594-0.433,1.102-1.021,1.193c-7.43,1.162-7.43,3.933-7.43,4.843V37.251z"/>
</svg>
