<?xml version="1.0" encoding="utf-8"?>
<!-- Generator: Adobe Illustrator 16.0.0, SVG Export Plug-In . SVG Version: 6.00 Build 0)  -->
<!DOCTYPE svg PUBLIC "-//W3C//DTD SVG 1.1//EN" "http://www.w3.org/Graphics/SVG/1.1/DTD/svg11.dtd">
<svg version="1.1" id="Capa_1" xmlns="http://www.w3.org/2000/svg" xmlns:xlink="http://www.w3.org/1999/xlink" x="0px" y="0px"
	 width="45px" height="45px" viewBox="-16.5 -16.5 45 45" enable-background="new -16.5 -16.5 45 45" xml:space="preserve">
<g>
	<path fill="#C92439" d="M15.939,2.519H-1.308c-0.381,0-0.69,0.309-0.69,0.691c0,0.38,0.31,0.689,0.69,0.689h17.248
		c0.381,0,0.691-0.309,0.691-0.689C16.631,2.828,16.32,2.519,15.939,2.519z"/>
	<path fill="#C92439" d="M-1.308-1.621h6.9c0.381,0,0.689-0.308,0.689-0.689C6.281-2.692,5.973-3,5.592-3h-6.9
		c-0.381,0-0.69,0.309-0.69,0.69C-1.999-1.929-1.689-1.621-1.308-1.621z"/>
	<path fill="#C92439" d="M15.939,8.037H-1.308c-0.381,0-0.69,0.31-0.69,0.691c0,0.38,0.31,0.689,0.69,0.689h17.248
		c0.381,0,0.691-0.31,0.691-0.689C16.631,8.347,16.32,8.037,15.939,8.037z"/>
	<path fill="#C92439" d="M15.939,13.559H-1.308c-0.381,0-0.69,0.308-0.69,0.691c0,0.38,0.31,0.688,0.69,0.688h17.248
		c0.381,0,0.691-0.308,0.691-0.688C16.631,13.866,16.32,13.559,15.939,13.559z"/>
	<path fill="#C92439" d="M15.939,19.077H-1.308c-0.381,0-0.69,0.309-0.69,0.69c0,0.381,0.31,0.689,0.69,0.689h17.248
		c0.381,0,0.691-0.309,0.691-0.689C16.631,19.386,16.32,19.077,15.939,19.077z"/>
	<path fill="#C92439" d="M18.699-4.666v-10.063h-29.666v37.944h3.45v3.45h29.665V-1.216L18.699-4.666z M12.49-8.924l6.209,6.21
		l1.095,1.093H12.49V-8.924z M-9.587,21.836v-35.185h26.908v7.304l-5.235-5.234H-7.517v33.115H-9.587z M-6.137,25.286v-2.07V-9.9
		h17.247v9.66h9.661v25.526H-6.137z"/>
</g>
</svg>
