<?xml version="1.0" encoding="utf-8"?>
<!-- Generator: Adobe Illustrator 16.0.0, SVG Export Plug-In . SVG Version: 6.00 Build 0)  -->
<!DOCTYPE svg PUBLIC "-//W3C//DTD SVG 1.1//EN" "http://www.w3.org/Graphics/SVG/1.1/DTD/svg11.dtd">
<svg version="1.1" id="Layer_1" xmlns="http://www.w3.org/2000/svg" xmlns:xlink="http://www.w3.org/1999/xlink" x="0px" y="0px"
	 width="45px" height="45px" viewBox="-16.5 -16.5 45 45" enable-background="new -16.5 -16.5 45 45" xml:space="preserve">
<g>
	<g>
		<g>
			<path fill="#626262" d="M76.5,67.734l-6.715-7.938c-0.746-0.877-2.045-0.97-2.898-0.206l-2.682,2.395
				c-0.406,0.364-0.656,0.867-0.699,1.423c-0.238-0.04-0.494,0.008-0.713,0.163c-2.037,1.43-6.063-0.198-8.961-3.622
				c-2.898-3.427-3.904-7.744-2.249-9.623c0.055-0.063,0.101-0.126,0.137-0.195c0.028,0.003,0.055,0.006,0.083,0.006
				c0.559,0.032,1.076-0.142,1.49-0.511l2.678-2.398c0.416-0.367,0.664-0.88,0.704-1.443c0.038-0.566-0.14-1.11-0.501-1.537
				l-6.714-7.936c-0.743-0.882-2.048-0.975-2.899-0.209L43.879,38.5c-0.21,0.188-0.365,0.424-0.455,0.691
				c-0.025,0.021-0.051,0.043-0.074,0.066c-2.71,2.603-5.263,17.801,3.129,27.716c5.182,6.125,12.943,8.085,18.695,8.085
				c3.197,0,5.773-0.604,6.941-1.437c0.529,0.043,1.072-0.125,1.502-0.51l2.682-2.396c0.412-0.373,0.662-0.884,0.699-1.446
				C77.035,68.704,76.857,68.161,76.5,67.734z M47.967,37.645l6.709,8.049l-2.738,2.416c-0.02-0.002-0.04-0.012-0.051-0.025
				c-0.195-0.23-0.57-0.633-1.057-1.146c-3.521-3.744-5.371-6.105-5.514-7.024L47.967,37.645z M47.97,65.639
				c-6.681-7.896-5.692-19.863-3.946-23.814c0.938,1.637,2.796,3.771,5.385,6.526c0.25,0.263,0.469,0.494,0.645,0.687
				c-2.303,2.732-1.334,7.967,2.288,12.243c3.653,4.32,8.622,6.028,11.565,3.97c0.072-0.051,0.133-0.109,0.186-0.172l6.158,7.271
				C66.707,73.742,54.977,73.917,47.97,65.639z M72.322,71.576c-0.029,0.029-0.084,0.023-0.113-0.005l-6.707-8.053l2.791-2.386
				l6.709,8.05L72.322,71.576z"/>
		</g>
	</g>
</g>
<g>
	<g>
		<path fill="#626262" d="M-5.089-1.666H8.929c0.449,0,0.813-0.363,0.813-0.811c0-0.448-0.363-0.812-0.813-0.812H-5.089
			c-0.449,0-0.813,0.363-0.813,0.812C-5.902-2.029-5.538-1.666-5.089-1.666z M25.107-12.109c-0.152-0.152-0.358-0.237-0.574-0.237
			H-8.485c-0.449,0-0.813,0.363-0.813,0.812L-9.302,1.458h-3.531c-0.012,0.001-0.023,0-0.037,0
			c-0.114,0.004-0.221,0.031-0.318,0.077c-0.099,0.047-0.189,0.114-0.266,0.202c-0.036,0.042-0.068,0.088-0.096,0.136l-0.002,0.002
			c0.002,0.002,0,0.004-0.003,0.006c0,0,0,0,0,0.001c-0.067,0.122-0.099,0.26-0.098,0.394v21.586c0,0.447,0.364,0.811,0.813,0.811
			h33.019c0.448,0,0.813-0.363,0.813-0.811V10.869h3.541c0.448,0,0.813-0.363,0.813-0.811l0.001-21.594
			C25.346-11.751,25.261-11.957,25.107-12.109z M17.901,3.08L3.669,14.705L-10.563,3.08H17.901z M-12.026,3.983l11.407,9.316
			l-11.407,9.32V3.983z M-9.986,23.049l10.651-8.701l2.489,2.033c0.3,0.246,0.73,0.246,1.03,0l2.744-2.24l10.907,8.908H-9.986z
			 M19.365,22.201L8.213,13.092l11.152-9.109V22.201z M23.719,9.246h-2.728V2.274c0.001-0.056-0.004-0.11-0.016-0.164
			c0,0,0,0,0-0.001c0.002-0.001-0.001-0.004-0.001-0.006C20.974,2.1,20.974,2.1,20.974,2.098c-0.001-0.003-0.001-0.005-0.001-0.005
			V2.092c-0.001-0.001-0.001-0.002-0.001-0.005c-0.001-0.002-0.001-0.003-0.001-0.005c-0.01-0.04-0.022-0.08-0.038-0.117
			c-0.001-0.002-0.001-0.003-0.002-0.006c-0.001-0.001-0.001-0.002-0.002-0.004C20.93,1.95,20.927,1.95,20.927,1.95
			c0-0.001-0.002-0.003-0.002-0.004c-0.035-0.081-0.083-0.156-0.142-0.22c-0.074-0.083-0.161-0.146-0.256-0.191
			c-0.098-0.046-0.206-0.073-0.319-0.077c-0.012,0-0.023,0.001-0.036,0H-7.675l0.003-12.183H23.72L23.719,9.246z M-5.089-5.098
			H8.929c0.449,0,0.813-0.363,0.813-0.811c0-0.448-0.363-0.812-0.813-0.812H-5.089c-0.449,0-0.813,0.363-0.813,0.812
			C-5.902-5.461-5.538-5.098-5.089-5.098z"/>
	</g>
</g>
</svg>
