<?xml version="1.0" encoding="utf-8"?>
<!-- Generator: Adobe Illustrator 16.0.3, SVG Export Plug-In . SVG Version: 6.00 Build 0)  -->
<!DOCTYPE svg PUBLIC "-//W3C//DTD SVG 1.1//EN" "http://www.w3.org/Graphics/SVG/1.1/DTD/svg11.dtd">
<svg version="1.1" id="Layer_1" xmlns="http://www.w3.org/2000/svg" xmlns:xlink="http://www.w3.org/1999/xlink" x="0px" y="0px"
	 width="125px" height="125px" viewBox="0 0 125 125" enable-background="new 0 0 125 125" xml:space="preserve">
<path fill="#E2E2E2" d="M90.737,119.304c-3.698,0-5.894-5.073-8.017-9.979c-0.336-0.775-0.645-1.491-0.922-2.079l-0.859-1.827
	c-5.084-10.806-9.906-21.059-15.257-31.45c-5.875,4.885-11.083,10.17-16.562,15.729c-1.218,1.234-2.439,2.475-3.677,3.718
	l0.917,9.015c0.283,2.809-0.507,5.439-2.112,7.04l-1.777,1.778c-1.334,1.334-2.812,2.566-4.59,2.568
	c-2.877,0-4.152-3.106-4.631-4.276l-5.176-12.603l-12.606-5.177c-1.732-0.711-3.778-1.796-4.199-3.897
	c-0.415-2.069,0.955-3.78,2.496-5.318l1.778-1.781c1.459-1.459,3.771-1.806,5.823-2.017c0.215-0.022,0.392-0.038,0.51-0.058
	c0.207-0.038,0.494-0.06,0.71-0.036l9.008,0.914c3.581-3.618,6.968-7.293,10.251-10.856c2.877-3.122,5.833-6.33,8.944-9.527
	C40.476,53.88,30.293,49.09,19.566,44.042l-1.817-0.855c-0.593-0.279-1.312-0.589-2.091-0.926c-5.437-2.351-9.33-4.25-9.911-7.297
	C5.5,33.66,5.934,32.37,6.971,31.333l4.529-4.531c1.542-1.543,4.467-2.093,6.687-2.093c0.906,0,1.752,0.085,2.517,0.254
	l53.681,11.822l27.198-27.201c1.079-1.077,2.293-1.954,3.611-2.606c1.307-0.649,2.662-1.056,4.025-1.21
	c1.391-0.16,2.786-0.05,4.04,0.329c1.375,0.418,2.566,1.125,3.549,2.104s1.692,2.175,2.107,3.551
	c0.385,1.277,0.495,2.639,0.331,4.051c-0.157,1.368-0.565,2.721-1.213,4.02c-0.653,1.319-1.53,2.537-2.606,3.61L88.21,50.65
	l11.81,53.63c0.832,3.774,0.146,7.215-1.84,9.202l-4.528,4.531C92.584,119.079,91.478,119.304,90.737,119.304z M66.437,68.019
	c0.162,0,0.325,0.017,0.487,0.052c0.68,0.145,1.26,0.585,1.581,1.202c5.93,11.352,11.142,22.431,16.66,34.158l0.858,1.825
	c0.295,0.628,0.625,1.388,0.981,2.215c0.773,1.787,2.483,5.738,3.653,6.93l4.22-4.217c0.814-0.816,1.048-2.786,0.582-4.898
	L83.376,50.404c-0.172-0.778,0.066-1.589,0.629-2.152l28.124-28.122c0.714-0.714,1.295-1.515,1.724-2.383
	c0.408-0.818,0.661-1.65,0.757-2.48c0.091-0.779,0.036-1.507-0.163-2.168c-0.188-0.625-0.503-1.162-0.935-1.59
	c-0.437-0.435-0.976-0.752-1.604-0.944c-0.641-0.193-1.393-0.247-2.158-0.157c-0.816,0.092-1.672,0.352-2.48,0.754
	c-0.865,0.429-1.667,1.009-2.386,1.727L76.781,40.991c-0.563,0.564-1.367,0.799-2.154,0.629L19.699,29.523
	c-0.43-0.095-0.953-0.146-1.512-0.146c-1.802,0-3.117,0.483-3.391,0.73l-4.214,4.218c1.191,1.168,5.142,2.876,6.93,3.649
	c0.83,0.359,1.596,0.69,2.225,0.988l1.816,0.855c11.745,5.526,22.838,10.745,34.2,16.682c0.66,0.344,1.114,0.982,1.227,1.716
	c0.113,0.735-0.13,1.479-0.656,2.004c-3.875,3.874-7.52,7.832-11.046,11.655c-3.552,3.857-7.225,7.842-11.163,11.78
	c-0.495,0.495-1.194,0.747-1.884,0.672l-9.826-0.999c-0.163,0.021-0.353,0.043-0.562,0.065c-1.679,0.172-2.688,0.399-3.001,0.677
	l-1.775,1.777c-0.481,0.482-0.775,0.822-0.954,1.055c0.234,0.138,0.591,0.319,1.13,0.542l13.508,5.547
	c0.578,0.237,1.037,0.696,1.274,1.273l5.547,13.503c0.222,0.543,0.406,0.901,0.543,1.136c0.234-0.177,0.574-0.471,1.056-0.953
	l1.778-1.779c0.598-0.596,0.906-1.909,0.769-3.271l-1.029-10.113c-0.071-0.697,0.176-1.389,0.672-1.886
	c1.497-1.497,2.97-2.992,4.436-4.48c6.259-6.35,12.169-12.347,19.194-17.898C65.404,68.193,65.917,68.019,66.437,68.019z"/>
</svg>
