<?xml version="1.0" encoding="utf-8"?>
<!-- Generator: Adobe Illustrator 16.0.0, SVG Export Plug-In . SVG Version: 6.00 Build 0)  -->
<!DOCTYPE svg PUBLIC "-//W3C//DTD SVG 1.1//EN" "http://www.w3.org/Graphics/SVG/1.1/DTD/svg11.dtd">
<svg version="1.1" id="Layer_1" xmlns="http://www.w3.org/2000/svg" xmlns:xlink="http://www.w3.org/1999/xlink" x="0px" y="0px"
	 width="45px" height="45px" viewBox="0 0 45 45" enable-background="new 0 0 45 45" xml:space="preserve">
<path fill-rule="evenodd" clip-rule="evenodd" fill="#5B5B5B" d="M40.269,14.384c-0.432,0.862-1.401,1.848-2.523,2.991
	c-0.229,0.234-0.468,0.477-0.71,0.726c0.056,0.058,0.104,0.124,0.143,0.198c1.271,2.482,1.915,5.164,1.915,7.971
	c0,9.671-7.879,17.537-17.563,17.537c-9.683,0-17.561-7.866-17.561-17.537c0-9.669,7.878-17.536,17.561-17.536
	c0.815,0,1.632,0.057,2.434,0.167c0.757-4.017,4.296-7.065,8.535-7.065c2.32,0,4.5,0.903,6.141,2.541
	c1.641,1.637,2.544,3.815,2.544,6.131C41.184,11.87,40.876,13.174,40.269,14.384z M35.828,19.398
	c-1.15,1.305-2.172,2.721-2.503,4.124c-0.086,0.36-0.395,0.624-0.765,0.65c-0.37,0.023-0.715-0.188-0.852-0.534
	c-0.706-1.787-2.262-3.64-3.692-5.233c0.679,2.204,1.076,4.576,1.152,7.017h8.203C37.263,23.315,36.743,21.295,35.828,19.398z
	 M37.371,27.117h-8.2c-0.072,2.444-0.463,4.819-1.137,7.026c2.063,0.614,3.896,1.518,5.334,2.658
	C35.695,34.199,37.176,30.825,37.371,27.117z M32.164,38.014c-1.266-0.97-2.869-1.74-4.68-2.27c-0.895,2.34-2.123,4.448-3.632,6.197
	C27.023,41.475,29.893,40.067,32.164,38.014z M15.836,27.117c0.07,2.287,0.438,4.505,1.067,6.56c1.473-0.295,3.03-0.45,4.619-0.45
	c1.679,0,3.321,0.174,4.867,0.501c0.639-2.069,1.013-4.305,1.084-6.61H15.836z M27.471,25.422c-0.077-2.305-0.456-4.536-1.101-6.603
	c-3.028,0.637-6.433,0.648-9.448,0.047c-0.635,2.053-1.008,4.268-1.085,6.555H27.471z M21.655,41.806
	c1.759-1.715,3.175-3.937,4.171-6.468c-2.652-0.526-5.691-0.545-8.362-0.047C18.46,37.843,19.883,40.078,21.655,41.806z
	 M19.489,41.979c-1.539-1.772-2.787-3.919-3.691-6.303c-1.904,0.53-3.591,1.322-4.91,2.33
	C13.229,40.125,16.204,41.557,19.489,41.979z M9.685,36.796c1.494-1.183,3.41-2.108,5.567-2.722
	c-0.661-2.188-1.045-4.538-1.115-6.957H5.691C5.887,30.823,7.363,34.191,9.685,36.796z M5.691,25.422h8.449
	c0.076-2.417,0.465-4.766,1.131-6.951c-2.165-0.613-4.088-1.542-5.586-2.728C7.364,18.348,5.887,21.718,5.691,25.422z
	 M10.888,14.532c1.325,1.012,3.021,1.808,4.933,2.336c0.914-2.393,2.176-4.545,3.73-6.317C16.242,10.965,13.244,12.4,10.888,14.532z
	 M21.655,10.799c-1.757,1.711-3.171,3.927-4.167,6.454c2.65,0.491,5.643,0.483,8.313-0.048C24.806,14.699,23.399,12.5,21.655,10.799
	z M37.439,5.575c-1.319-1.318-3.075-2.044-4.94-2.044c-3.853,0-6.986,3.129-6.986,6.976c0,1.095,0.247,2.145,0.734,3.117
	c0.349,0.695,1.31,1.751,2.327,2.869c1.264,1.389,2.761,3.033,3.824,4.771c1.009-1.896,2.705-3.622,4.135-5.078
	c0.979-0.997,1.905-1.939,2.217-2.563c0.487-0.972,0.734-2.021,0.734-3.117C39.484,8.644,38.759,6.892,37.439,5.575z M32.499,15.146
	c-2.608,0-4.732-2.12-4.732-4.725c0-2.604,2.124-4.725,4.732-4.725s4.731,2.121,4.731,4.725
	C37.23,13.026,35.107,15.146,32.499,15.146z M32.499,7.392c-1.673,0-3.033,1.36-3.033,3.029c0,1.671,1.36,3.029,3.033,3.029
	s3.034-1.358,3.034-3.029C35.533,8.751,34.172,7.392,32.499,7.392z"/>
</svg>
