<?xml version="1.0" encoding="utf-8"?>
<!-- Generator: Adobe Illustrator 16.0.0, SVG Export Plug-In . SVG Version: 6.00 Build 0)  -->
<!DOCTYPE svg PUBLIC "-//W3C//DTD SVG 1.1//EN" "http://www.w3.org/Graphics/SVG/1.1/DTD/svg11.dtd">
<svg version="1.1" id="Layer_1" xmlns="http://www.w3.org/2000/svg" xmlns:xlink="http://www.w3.org/1999/xlink" x="0px" y="0px"
	 width="45px" height="45px" viewBox="0 0 45 45" enable-background="new 0 0 45 45" xml:space="preserve">
<path fill="#5B5B5B" d="M36.516,40.388h-2.893V31.71c0-1.09,0-4.409-8.9-5.801c-0.705-0.111-1.223-0.719-1.223-1.43v-1.995
	c0-0.606,0.376-1.146,0.945-1.357c2.953-1.088,3.393-3.805,3.393-5.325v-2.893c0-3.352-2.432-5.785-5.784-5.785V4.232
	c4.947,0,8.678,3.729,8.678,8.677v2.893c0,3.394-1.482,6.064-4.11,7.506c6.566,1.314,9.895,4.138,9.895,8.401V40.388L36.516,40.388z
	"/>
<path fill="#5B5B5B" d="M11.476,40.388H8.584V31.71c0-4.264,3.327-7.087,9.894-8.401c-2.628-1.442-4.109-4.112-4.109-7.506v-2.893
	c0-4.946,3.729-8.677,8.677-8.677v2.892c-3.352,0-5.785,2.434-5.785,5.785v2.893c0,1.52,0.44,4.237,3.394,5.325
	c0.568,0.21,0.945,0.751,0.945,1.357v1.994c0,0.713-0.519,1.32-1.224,1.43c-8.901,1.393-8.901,4.713-8.901,5.802V40.388z"/>
</svg>
