<?xml version="1.0" encoding="utf-8"?>
<!-- Generator: Adobe Illustrator 16.0.3, SVG Export Plug-In . SVG Version: 6.00 Build 0)  -->
<!DOCTYPE svg PUBLIC "-//W3C//DTD SVG 1.1//EN" "http://www.w3.org/Graphics/SVG/1.1/DTD/svg11.dtd">
<svg version="1.1" id="Layer_1" xmlns="http://www.w3.org/2000/svg" xmlns:xlink="http://www.w3.org/1999/xlink" x="0px" y="0px"
	 width="56px" height="56px" viewBox="0 0 56 56" enable-background="new 0 0 56 56" xml:space="preserve">
<g opacity="0.6">
	<path fill="#E2E2E2" d="M48.451,31.075c-0.233,0-0.467-0.08-0.654-0.245L28,13.661L8.204,30.83
		c-0.413,0.361-1.038,0.32-1.402-0.089l-3.547-3.968c-0.368-0.413-0.333-1.044,0.08-1.414L27.333,3.892
		c0.379-0.34,0.955-0.34,1.334,0l23.999,21.467c0.413,0.369,0.448,1.001,0.078,1.414l-3.546,3.967
		C49,30.963,48.726,31.075,48.451,31.075z M5.415,26.185l2.223,2.486L27.345,11.58c0.375-0.326,0.936-0.326,1.312,0l19.706,17.091
		l2.224-2.486L28.001,5.981L5.415,26.185z"/>
	<path fill="#E2E2E2" d="M43.58,52.362H12.419c-0.554,0-1.001-0.448-1.001-1.001V26.107c0-0.553,0.447-1.001,1.001-1.001
		c0.552,0,1.001,0.448,1.001,1.001v24.252h29.16V26.107c0-0.553,0.447-1.001,1-1.001s1.001,0.448,1.001,1.001v25.254
		C44.581,51.914,44.133,52.362,43.58,52.362z"/>
	<path fill="#E2E2E2" d="M12.419,19.576c-0.554,0-1.001-0.448-1.001-1V4.88c0-0.552,0.447-1.001,1.001-1.001h6.434
		c0.552,0,1.001,0.449,1.001,1.001v7.942c0,0.553-0.45,1-1.001,1c-0.554,0-1.001-0.448-1.001-1V5.88H13.42v12.695
		C13.42,19.128,12.973,19.576,12.419,19.576z"/>
</g>
</svg>
